<svg width="289" height="226" viewBox="0 0 289 226" fill="none" xmlns="http://www.w3.org/2000/svg">
<g filter="url(#filter0_d_12304_2873)">
<rect x="27.75" y="28.0146" width="234" height="170" rx="5.75" fill="white" stroke="#E6EDFF" stroke-width="0.5"/>
<path d="M41.1167 49.7646L39.2666 44.3989H39.2271C39.2358 44.519 39.2461 44.6831 39.2578 44.8911C39.2695 45.0991 39.2798 45.3218 39.2886 45.5591C39.2974 45.7964 39.3018 46.0234 39.3018 46.2402V49.7646H38.3438V43.3398H39.8247L41.6045 48.4683H41.6309L43.4722 43.3398H44.9487V49.7646H43.9424V46.1875C43.9424 45.9912 43.9453 45.7788 43.9512 45.5503C43.96 45.3218 43.9688 45.105 43.9775 44.8999C43.9893 44.6948 43.998 44.5308 44.0039 44.4077H43.9688L42.0483 49.7646H41.1167ZM50.8418 47.3213C50.8418 47.7256 50.7891 48.0845 50.6836 48.3979C50.5781 48.7114 50.4243 48.9766 50.2222 49.1934C50.02 49.4072 49.7769 49.5713 49.4927 49.6855C49.2085 49.7969 48.8877 49.8525 48.5303 49.8525C48.1963 49.8525 47.8901 49.7969 47.6118 49.6855C47.3335 49.5713 47.0918 49.4072 46.8867 49.1934C46.6846 48.9766 46.5278 48.7114 46.4165 48.3979C46.3052 48.0845 46.2495 47.7256 46.2495 47.3213C46.2495 46.7852 46.3418 46.3311 46.5264 45.959C46.7139 45.584 46.9805 45.2983 47.3262 45.1021C47.6719 44.9058 48.0835 44.8076 48.561 44.8076C49.0093 44.8076 49.4048 44.9058 49.7476 45.1021C50.0903 45.2983 50.3584 45.584 50.5518 45.959C50.7451 46.334 50.8418 46.7881 50.8418 47.3213ZM47.313 47.3213C47.313 47.6758 47.3555 47.979 47.4404 48.231C47.5283 48.4829 47.6631 48.6763 47.8447 48.811C48.0264 48.9429 48.2607 49.0088 48.5479 49.0088C48.835 49.0088 49.0693 48.9429 49.251 48.811C49.4326 48.6763 49.5659 48.4829 49.6509 48.231C49.7358 47.979 49.7783 47.6758 49.7783 47.3213C49.7783 46.9668 49.7358 46.6665 49.6509 46.4204C49.5659 46.1714 49.4326 45.9824 49.251 45.8535C49.0693 45.7217 48.8335 45.6558 48.5435 45.6558C48.1157 45.6558 47.8037 45.7993 47.6074 46.0864C47.4111 46.3735 47.313 46.7852 47.313 47.3213ZM54.564 44.8076C55.1118 44.8076 55.5381 44.9497 55.8428 45.2339C56.1504 45.5151 56.3042 45.9678 56.3042 46.5918V49.7646H55.2715V46.7852C55.2715 46.4072 55.1938 46.1245 55.0386 45.937C54.8833 45.7466 54.6431 45.6514 54.3179 45.6514C53.8462 45.6514 53.5181 45.7964 53.3335 46.0864C53.1519 46.3765 53.061 46.7969 53.061 47.3477V49.7646H52.0283V44.8999H52.8325L52.9775 45.5591H53.0347C53.1401 45.3892 53.2705 45.25 53.4258 45.1416C53.584 45.0303 53.7598 44.9468 53.9531 44.8911C54.1494 44.8354 54.353 44.8076 54.564 44.8076ZM59.5605 49.0176C59.6953 49.0176 59.8286 49.0059 59.9604 48.9824C60.0923 48.9561 60.2124 48.9253 60.3208 48.8901V49.6724C60.2065 49.7222 60.0586 49.7646 59.877 49.7998C59.6953 49.835 59.5063 49.8525 59.3101 49.8525C59.0347 49.8525 58.7871 49.8071 58.5674 49.7163C58.3477 49.6226 58.1733 49.4629 58.0444 49.2373C57.9155 49.0117 57.8511 48.6997 57.8511 48.3013V45.6865H57.1875V45.2251L57.8994 44.8604L58.2378 43.8188H58.8882V44.8999H60.2812V45.6865H58.8882V48.2881C58.8882 48.5342 58.9497 48.7173 59.0728 48.8374C59.1958 48.9575 59.3584 49.0176 59.5605 49.0176ZM62.3423 42.9268V44.645C62.3423 44.8237 62.3364 44.998 62.3247 45.168C62.3159 45.3379 62.3057 45.4697 62.2939 45.5635H62.3511C62.4536 45.3936 62.5796 45.2544 62.729 45.146C62.8784 45.0347 63.0454 44.9512 63.23 44.8955C63.4175 44.8398 63.6167 44.812 63.8276 44.812C64.1997 44.812 64.5161 44.875 64.7769 45.001C65.0376 45.124 65.2368 45.3159 65.3745 45.5767C65.5151 45.8374 65.5854 46.1758 65.5854 46.5918V49.7646H64.5527V46.7852C64.5527 46.4072 64.4751 46.1245 64.3198 45.937C64.1646 45.7466 63.9243 45.6514 63.5991 45.6514C63.2856 45.6514 63.0366 45.7173 62.8521 45.8491C62.6704 45.978 62.54 46.1699 62.4609 46.4248C62.3818 46.6768 62.3423 46.9844 62.3423 47.3477V49.7646H61.3096V42.9268H62.3423ZM68.0684 49.7646H67.0312V42.9268H68.0684V49.7646ZM68.811 44.8999H69.936L70.9336 47.6772C70.9775 47.8032 71.0171 47.9277 71.0522 48.0508C71.0903 48.1709 71.1226 48.2896 71.1489 48.4067C71.1782 48.5239 71.2017 48.6411 71.2192 48.7583H71.2456C71.2749 48.606 71.3159 48.436 71.3687 48.2485C71.4243 48.0581 71.4858 47.8677 71.5532 47.6772L72.5112 44.8999H73.623L71.5356 50.4326C71.4155 50.749 71.2676 51.0186 71.0918 51.2412C70.9189 51.4668 70.7139 51.6367 70.4766 51.751C70.2393 51.8682 69.9683 51.9268 69.6636 51.9268C69.5171 51.9268 69.3896 51.918 69.2812 51.9004C69.1729 51.8857 69.0806 51.8696 69.0044 51.8521V51.0259C69.0659 51.0405 69.1436 51.0537 69.2373 51.0654C69.3311 51.0771 69.4277 51.083 69.5273 51.083C69.7119 51.083 69.8716 51.0464 70.0063 50.9731C70.1411 50.8999 70.2554 50.7959 70.3491 50.6611C70.4429 50.5293 70.5205 50.3784 70.582 50.2085L70.7534 49.7515L68.811 44.8999ZM79.3975 46.2754H81.7969V49.501C81.46 49.6123 81.1113 49.6987 80.751 49.7603C80.3906 49.8218 79.9863 49.8525 79.5381 49.8525C78.8848 49.8525 78.3311 49.7236 77.877 49.4658C77.4258 49.2051 77.083 48.8286 76.8486 48.3364C76.6143 47.8413 76.4971 47.2451 76.4971 46.5479C76.4971 45.877 76.6274 45.2954 76.8882 44.8032C77.1489 44.3081 77.5283 43.9258 78.0264 43.6562C78.5244 43.3838 79.1279 43.2476 79.8369 43.2476C80.1855 43.2476 80.5225 43.2827 80.8477 43.353C81.1758 43.4204 81.4761 43.5142 81.7485 43.6343L81.3794 44.5044C81.1626 44.4019 80.9194 44.3154 80.6499 44.2451C80.3804 44.1748 80.1006 44.1396 79.8105 44.1396C79.3506 44.1396 78.9536 44.2393 78.6196 44.4385C78.2886 44.6377 78.0337 44.9189 77.855 45.2822C77.6763 45.6426 77.5869 46.0688 77.5869 46.561C77.5869 47.0386 77.6587 47.4575 77.8022 47.8179C77.9458 48.1782 78.1699 48.4595 78.4746 48.6616C78.7822 48.8608 79.1792 48.9604 79.6655 48.9604C79.9087 48.9604 80.1152 48.9473 80.2852 48.9209C80.4551 48.8945 80.6118 48.8652 80.7554 48.833V47.1763H79.3975V46.2754ZM87.5361 47.3213C87.5361 47.7256 87.4834 48.0845 87.3779 48.3979C87.2725 48.7114 87.1187 48.9766 86.9165 49.1934C86.7144 49.4072 86.4712 49.5713 86.187 49.6855C85.9028 49.7969 85.582 49.8525 85.2246 49.8525C84.8906 49.8525 84.5845 49.7969 84.3062 49.6855C84.0278 49.5713 83.7861 49.4072 83.5811 49.1934C83.3789 48.9766 83.2222 48.7114 83.1108 48.3979C82.9995 48.0845 82.9438 47.7256 82.9438 47.3213C82.9438 46.7852 83.0361 46.3311 83.2207 45.959C83.4082 45.584 83.6748 45.2983 84.0205 45.1021C84.3662 44.9058 84.7778 44.8076 85.2554 44.8076C85.7036 44.8076 86.0991 44.9058 86.4419 45.1021C86.7847 45.2983 87.0527 45.584 87.2461 45.959C87.4395 46.334 87.5361 46.7881 87.5361 47.3213ZM84.0073 47.3213C84.0073 47.6758 84.0498 47.979 84.1348 48.231C84.2227 48.4829 84.3574 48.6763 84.5391 48.811C84.7207 48.9429 84.9551 49.0088 85.2422 49.0088C85.5293 49.0088 85.7637 48.9429 85.9453 48.811C86.127 48.6763 86.2603 48.4829 86.3452 48.231C86.4302 47.979 86.4727 47.6758 86.4727 47.3213C86.4727 46.9668 86.4302 46.6665 86.3452 46.4204C86.2603 46.1714 86.127 45.9824 85.9453 45.8535C85.7637 45.7217 85.5278 45.6558 85.2378 45.6558C84.8101 45.6558 84.498 45.7993 84.3018 46.0864C84.1055 46.3735 84.0073 46.7852 84.0073 47.3213ZM90.6299 44.8076C91.2451 44.8076 91.7095 44.9438 92.0229 45.2163C92.3394 45.4888 92.4976 45.9136 92.4976 46.4907V49.7646H91.7637L91.5659 49.0747H91.5308C91.3931 49.2505 91.251 49.3955 91.1045 49.5098C90.958 49.624 90.7881 49.709 90.5947 49.7646C90.4043 49.8232 90.1714 49.8525 89.896 49.8525C89.606 49.8525 89.3467 49.7998 89.1182 49.6943C88.8896 49.5859 88.7095 49.4219 88.5776 49.2021C88.4458 48.9824 88.3799 48.7041 88.3799 48.3672C88.3799 47.8662 88.5659 47.4897 88.938 47.2378C89.313 46.9858 89.8784 46.8467 90.6343 46.8203L91.478 46.7896V46.5347C91.478 46.1978 91.3989 45.9575 91.2407 45.814C91.0854 45.6704 90.8657 45.5986 90.5815 45.5986C90.3384 45.5986 90.1025 45.6338 89.874 45.7041C89.6455 45.7744 89.4229 45.8608 89.2061 45.9634L88.8721 45.2339C89.1094 45.1079 89.3789 45.0054 89.6807 44.9263C89.9854 44.8472 90.3018 44.8076 90.6299 44.8076ZM91.4736 47.4399L90.8452 47.4619C90.3296 47.4795 89.9678 47.5674 89.7598 47.7256C89.5518 47.8838 89.4478 48.1006 89.4478 48.376C89.4478 48.6162 89.5195 48.792 89.6631 48.9033C89.8066 49.0117 89.9956 49.0659 90.23 49.0659C90.5874 49.0659 90.8833 48.9648 91.1177 48.7627C91.355 48.5576 91.4736 48.2573 91.4736 47.8618V47.4399ZM94.9805 49.7646H93.9434V42.9268H94.9805V49.7646ZM99.8276 44.8999V49.7646H98.7949V44.8999H99.8276ZM99.3179 43.0366C99.4761 43.0366 99.6123 43.0791 99.7266 43.1641C99.8438 43.249 99.9023 43.3955 99.9023 43.6035C99.9023 43.8086 99.8438 43.9551 99.7266 44.043C99.6123 44.1279 99.4761 44.1704 99.3179 44.1704C99.1538 44.1704 99.0146 44.1279 98.9004 44.043C98.7891 43.9551 98.7334 43.8086 98.7334 43.6035C98.7334 43.3955 98.7891 43.249 98.9004 43.1641C99.0146 43.0791 99.1538 43.0366 99.3179 43.0366ZM103.844 44.8076C104.392 44.8076 104.818 44.9497 105.123 45.2339C105.431 45.5151 105.584 45.9678 105.584 46.5918V49.7646H104.552V46.7852C104.552 46.4072 104.474 46.1245 104.319 45.937C104.164 45.7466 103.923 45.6514 103.598 45.6514C103.126 45.6514 102.798 45.7964 102.614 46.0864C102.432 46.3765 102.341 46.7969 102.341 47.3477V49.7646H101.309V44.8999H102.113L102.258 45.5591H102.315C102.42 45.3892 102.551 45.25 102.706 45.1416C102.864 45.0303 103.04 44.9468 103.233 44.8911C103.43 44.8354 103.633 44.8076 103.844 44.8076ZM111.341 43.3398C112.17 43.3398 112.775 43.5098 113.156 43.8496C113.537 44.1895 113.728 44.6655 113.728 45.2778C113.728 45.5562 113.684 45.8213 113.596 46.0732C113.511 46.3223 113.37 46.5435 113.174 46.7368C112.978 46.9272 112.718 47.0781 112.396 47.1895C112.077 47.3008 111.683 47.3564 111.214 47.3564H110.528V49.7646H109.474V43.3398H111.341ZM111.271 44.2144H110.528V46.4775H111.104C111.435 46.4775 111.716 46.4395 111.948 46.3633C112.179 46.2842 112.355 46.1597 112.475 45.9897C112.595 45.8198 112.655 45.5957 112.655 45.3174C112.655 44.9453 112.542 44.6685 112.317 44.4868C112.094 44.3052 111.746 44.2144 111.271 44.2144ZM119.212 47.3213C119.212 47.7256 119.159 48.0845 119.054 48.3979C118.948 48.7114 118.794 48.9766 118.592 49.1934C118.39 49.4072 118.147 49.5713 117.863 49.6855C117.579 49.7969 117.258 49.8525 116.9 49.8525C116.566 49.8525 116.26 49.7969 115.982 49.6855C115.704 49.5713 115.462 49.4072 115.257 49.1934C115.055 48.9766 114.898 48.7114 114.787 48.3979C114.675 48.0845 114.62 47.7256 114.62 47.3213C114.62 46.7852 114.712 46.3311 114.896 45.959C115.084 45.584 115.351 45.2983 115.696 45.1021C116.042 44.9058 116.454 44.8076 116.931 44.8076C117.379 44.8076 117.775 44.9058 118.118 45.1021C118.46 45.2983 118.729 45.584 118.922 45.959C119.115 46.334 119.212 46.7881 119.212 47.3213ZM115.683 47.3213C115.683 47.6758 115.726 47.979 115.811 48.231C115.898 48.4829 116.033 48.6763 116.215 48.811C116.396 48.9429 116.631 49.0088 116.918 49.0088C117.205 49.0088 117.439 48.9429 117.621 48.811C117.803 48.6763 117.936 48.4829 118.021 48.231C118.106 47.979 118.148 47.6758 118.148 47.3213C118.148 46.9668 118.106 46.6665 118.021 46.4204C117.936 46.1714 117.803 45.9824 117.621 45.8535C117.439 45.7217 117.204 45.6558 116.914 45.6558C116.486 45.6558 116.174 45.7993 115.978 46.0864C115.781 46.3735 115.683 46.7852 115.683 47.3213ZM121.431 44.8999V49.7646H120.398V44.8999H121.431ZM120.921 43.0366C121.08 43.0366 121.216 43.0791 121.33 43.1641C121.447 43.249 121.506 43.3955 121.506 43.6035C121.506 43.8086 121.447 43.9551 121.33 44.043C121.216 44.1279 121.08 44.1704 120.921 44.1704C120.757 44.1704 120.618 44.1279 120.504 44.043C120.393 43.9551 120.337 43.8086 120.337 43.6035C120.337 43.3955 120.393 43.249 120.504 43.1641C120.618 43.0791 120.757 43.0366 120.921 43.0366ZM125.448 44.8076C125.996 44.8076 126.422 44.9497 126.727 45.2339C127.034 45.5151 127.188 45.9678 127.188 46.5918V49.7646H126.155V46.7852C126.155 46.4072 126.078 46.1245 125.922 45.937C125.767 45.7466 125.527 45.6514 125.202 45.6514C124.73 45.6514 124.402 45.7964 124.217 46.0864C124.036 46.3765 123.945 46.7969 123.945 47.3477V49.7646H122.912V44.8999H123.716L123.861 45.5591H123.918C124.024 45.3892 124.154 45.25 124.31 45.1416C124.468 45.0303 124.644 44.9468 124.837 44.8911C125.033 44.8354 125.237 44.8076 125.448 44.8076ZM130.444 49.0176C130.579 49.0176 130.712 49.0059 130.844 48.9824C130.976 48.9561 131.096 48.9253 131.205 48.8901V49.6724C131.09 49.7222 130.942 49.7646 130.761 49.7998C130.579 49.835 130.39 49.8525 130.194 49.8525C129.918 49.8525 129.671 49.8071 129.451 49.7163C129.231 49.6226 129.057 49.4629 128.928 49.2373C128.799 49.0117 128.735 48.6997 128.735 48.3013V45.6865H128.071V45.2251L128.783 44.8604L129.122 43.8188H129.772V44.8999H131.165V45.6865H129.772V48.2881C129.772 48.5342 129.833 48.7173 129.957 48.8374C130.08 48.9575 130.242 49.0176 130.444 49.0176ZM135.463 48.376C135.463 48.6953 135.385 48.9648 135.23 49.1846C135.075 49.4043 134.848 49.5713 134.549 49.6855C134.253 49.7969 133.89 49.8525 133.459 49.8525C133.119 49.8525 132.826 49.8276 132.58 49.7778C132.337 49.731 132.107 49.6577 131.89 49.5581V48.666C132.122 48.7744 132.381 48.8682 132.668 48.9473C132.958 49.0264 133.232 49.0659 133.49 49.0659C133.83 49.0659 134.074 49.0132 134.224 48.9077C134.373 48.7993 134.448 48.6558 134.448 48.4771C134.448 48.3716 134.417 48.2778 134.355 48.1958C134.297 48.1108 134.186 48.0244 134.021 47.9365C133.86 47.8457 133.623 47.7373 133.31 47.6113C133.002 47.4883 132.743 47.3652 132.532 47.2422C132.321 47.1191 132.161 46.9712 132.053 46.7983C131.944 46.6226 131.89 46.3984 131.89 46.126C131.89 45.6953 132.06 45.3687 132.4 45.146C132.743 44.9204 133.195 44.8076 133.758 44.8076C134.057 44.8076 134.338 44.8384 134.602 44.8999C134.868 44.9585 135.129 45.0449 135.384 45.1592L135.059 45.937C134.839 45.8403 134.618 45.7612 134.395 45.6997C134.175 45.6353 133.951 45.603 133.723 45.603C133.456 45.603 133.252 45.644 133.112 45.7261C132.974 45.8081 132.905 45.9253 132.905 46.0776C132.905 46.1919 132.939 46.2886 133.006 46.3677C133.074 46.4468 133.189 46.5259 133.354 46.605C133.521 46.6841 133.752 46.7822 134.048 46.8994C134.338 47.0107 134.588 47.1279 134.799 47.251C135.013 47.3711 135.177 47.519 135.292 47.6948C135.406 47.8706 135.463 48.0977 135.463 48.376Z" fill="black" fill-opacity="0.8"/>
<g filter="url(#filter1_d_12304_2873)">
<rect x="182" y="37.7646" width="33.5" height="18" rx="2" fill="white" shape-rendering="crispEdges"/>
<rect x="181.75" y="37.5146" width="34" height="18.5" rx="2.25" stroke="black" stroke-opacity="0.05" stroke-width="0.5" shape-rendering="crispEdges"/>
<path d="M189.879 48.1675H189.203V49.2646H188.41V48.1675H186.137V47.5591L188.42 44.2539H189.203V47.501H189.879V48.1675ZM188.41 47.501V46.2603C188.41 46.1577 188.411 46.054 188.413 45.9492C188.418 45.8421 188.422 45.7396 188.427 45.6416C188.431 45.5436 188.436 45.4536 188.44 45.3716C188.445 45.2873 188.448 45.2178 188.451 45.1631H188.423C188.38 45.2542 188.332 45.3477 188.28 45.4434C188.227 45.5368 188.172 45.6279 188.112 45.7168L186.882 47.501H188.41ZM190.891 49.2646L192.853 44.9717H190.259V44.2676H193.718V44.8179L191.756 49.2646H190.891ZM196.025 46.1406C196.346 46.1406 196.629 46.1987 196.873 46.3149C197.119 46.4289 197.31 46.5975 197.447 46.8208C197.583 47.0418 197.652 47.313 197.652 47.6343C197.652 47.9852 197.578 48.2882 197.43 48.5435C197.282 48.7964 197.064 48.9912 196.777 49.1279C196.49 49.2646 196.14 49.333 195.728 49.333C195.465 49.333 195.221 49.3102 194.993 49.2646C194.767 49.2191 194.572 49.1507 194.408 49.0596V48.335C194.579 48.4307 194.784 48.5093 195.023 48.5708C195.263 48.63 195.492 48.6597 195.71 48.6597C195.943 48.6597 196.142 48.6255 196.309 48.5571C196.475 48.4888 196.603 48.384 196.691 48.2427C196.783 48.1014 196.828 47.9225 196.828 47.7061C196.828 47.4189 196.736 47.1979 196.551 47.043C196.369 46.8857 196.083 46.8071 195.693 46.8071C195.557 46.8071 195.411 46.8197 195.256 46.8447C195.103 46.8675 194.976 46.8926 194.873 46.9199L194.521 46.7114L194.709 44.2676H197.307V44.9751H195.417L195.307 46.2192C195.389 46.201 195.487 46.1839 195.601 46.168C195.715 46.1497 195.856 46.1406 196.025 46.1406Z" fill="black" fill-opacity="0.8"/>
<path fill-rule="evenodd" clip-rule="evenodd" d="M210.867 44.6316C210.756 44.7423 210.577 44.7423 210.466 44.6316L209 43.1653L207.534 44.6316C207.423 44.7423 207.244 44.7423 207.133 44.6316C207.022 44.521 207.022 44.3416 207.133 44.2309L208.8 42.5643C208.91 42.4536 209.09 42.4536 209.2 42.5643L210.867 44.2309C210.978 44.3416 210.978 44.521 210.867 44.6316Z" fill="#7C8DB5"/>
<path fill-rule="evenodd" clip-rule="evenodd" d="M207.133 48.8977C207.244 48.787 207.423 48.787 207.534 48.8977L209 50.364L210.466 48.8977C210.577 48.787 210.756 48.787 210.867 48.8977C210.978 49.0083 210.978 49.1877 210.867 49.2984L209.2 50.965C209.09 51.0757 208.91 51.0757 208.8 50.965L207.133 49.2984C207.022 49.1877 207.022 49.0083 207.133 48.8977Z" fill="#7C8DB5"/>
</g>
<rect x="219.5" y="37.7646" width="32.5" height="18" rx="2" fill="#2C3E50"/>
<path d="M226.791 48.4043C226.791 48.7005 226.718 48.9557 226.572 49.1699C226.429 49.3841 226.221 49.5482 225.95 49.6621C225.681 49.776 225.36 49.833 224.986 49.833C224.804 49.833 224.63 49.8228 224.463 49.8022C224.297 49.7817 224.14 49.7521 223.992 49.7134C223.846 49.6724 223.713 49.6234 223.592 49.5664V48.7939C223.795 48.8828 224.021 48.9637 224.272 49.0366C224.523 49.1073 224.778 49.1426 225.038 49.1426C225.25 49.1426 225.425 49.1152 225.564 49.0605C225.705 49.0036 225.81 48.9238 225.878 48.8213C225.947 48.7165 225.981 48.5946 225.981 48.4556C225.981 48.3075 225.941 48.1821 225.861 48.0796C225.782 47.9771 225.661 47.8836 225.499 47.7993C225.34 47.7127 225.139 47.6204 224.897 47.5225C224.733 47.4564 224.576 47.3812 224.426 47.2969C224.278 47.2126 224.146 47.1134 224.029 46.9995C223.913 46.8856 223.821 46.7511 223.752 46.5962C223.686 46.439 223.653 46.2544 223.653 46.0425C223.653 45.7599 223.721 45.5184 223.855 45.3179C223.992 45.1174 224.183 44.9635 224.429 44.8564C224.678 44.7493 224.967 44.6958 225.297 44.6958C225.559 44.6958 225.806 44.7231 226.036 44.7778C226.268 44.8325 226.496 44.91 226.719 45.0103L226.459 45.6699C226.254 45.5856 226.055 45.5184 225.861 45.4683C225.67 45.4181 225.474 45.3931 225.273 45.3931C225.1 45.3931 224.953 45.4193 224.833 45.4717C224.712 45.5241 224.619 45.5981 224.556 45.6938C224.494 45.7873 224.463 45.8989 224.463 46.0288C224.463 46.1746 224.499 46.2977 224.569 46.3979C224.642 46.4959 224.754 46.5859 224.904 46.668C225.057 46.75 225.253 46.8411 225.492 46.9414C225.768 47.0553 226.001 47.175 226.193 47.3003C226.387 47.4256 226.535 47.576 226.637 47.7515C226.74 47.9246 226.791 48.1423 226.791 48.4043ZM230.971 45.981V49.7646H230.339L230.229 49.2554H230.185C230.105 49.3853 230.004 49.4935 229.881 49.5801C229.758 49.6644 229.621 49.7271 229.471 49.7681C229.32 49.8114 229.162 49.833 228.996 49.833C228.711 49.833 228.467 49.7852 228.264 49.6895C228.064 49.5915 227.91 49.4411 227.803 49.2383C227.696 49.0355 227.642 48.7734 227.642 48.4521V45.981H228.449V48.3018C228.449 48.5957 228.508 48.8156 228.626 48.9614C228.747 49.1073 228.934 49.1802 229.187 49.1802C229.431 49.1802 229.625 49.13 229.768 49.0298C229.912 48.9295 230.013 48.7814 230.072 48.5854C230.134 48.3895 230.165 48.1491 230.165 47.8643V45.981H230.971ZM232.926 44.4463V45.728C232.926 45.8761 232.922 46.022 232.913 46.1655C232.906 46.3068 232.899 46.4173 232.892 46.4971H232.926C233.029 46.333 233.171 46.1951 233.354 46.0835C233.538 45.9696 233.774 45.9126 234.061 45.9126C234.51 45.9126 234.871 46.0778 235.145 46.4082C235.418 46.7363 235.555 47.2228 235.555 47.8677C235.555 48.2961 235.492 48.6561 235.367 48.9478C235.241 49.2394 235.065 49.4604 234.837 49.6108C234.611 49.759 234.346 49.833 234.041 49.833C233.753 49.833 233.521 49.7806 233.343 49.6758C233.168 49.5687 233.03 49.4445 232.93 49.3032H232.872L232.725 49.7646H232.123V44.4463H232.926ZM233.849 46.5654C233.621 46.5654 233.44 46.611 233.306 46.7021C233.174 46.7933 233.078 46.93 233.019 47.1123C232.959 47.2923 232.929 47.5213 232.926 47.7993V47.8711C232.926 48.2926 232.992 48.6151 233.125 48.8384C233.259 49.0617 233.503 49.1733 233.856 49.1733C234.136 49.1733 234.352 49.0605 234.502 48.835C234.652 48.6071 234.728 48.2812 234.728 47.8574C234.728 47.429 234.652 47.1066 234.502 46.8901C234.354 46.6737 234.136 46.5654 233.849 46.5654ZM240.76 45.9092C241.184 45.9092 241.503 46.0186 241.717 46.2373C241.934 46.4561 242.042 46.807 242.042 47.29V49.7646H241.239V47.4336C241.239 47.1465 241.183 46.93 241.071 46.7842C240.96 46.6383 240.79 46.5654 240.562 46.5654C240.243 46.5654 240.013 46.668 239.872 46.873C239.733 47.0758 239.663 47.3709 239.663 47.7583V49.7646H238.86V47.4336C238.86 47.2422 238.835 47.0827 238.785 46.9551C238.737 46.8252 238.663 46.7284 238.562 46.6646C238.462 46.5985 238.336 46.5654 238.183 46.5654C237.962 46.5654 237.785 46.6156 237.653 46.7158C237.523 46.8161 237.43 46.9642 237.373 47.1602C237.316 47.3538 237.288 47.592 237.288 47.8745V49.7646H236.484V45.981H237.11L237.223 46.4902H237.267C237.345 46.3581 237.44 46.2498 237.554 46.1655C237.67 46.0789 237.799 46.0151 237.94 45.9741C238.082 45.9308 238.229 45.9092 238.381 45.9092C238.664 45.9092 238.902 45.9593 239.096 46.0596C239.289 46.1576 239.434 46.3079 239.53 46.5107H239.591C239.71 46.3057 239.875 46.1541 240.087 46.0562C240.299 45.9582 240.523 45.9092 240.76 45.9092ZM243.966 45.981V49.7646H243.163V45.981H243.966ZM243.57 44.5317C243.693 44.5317 243.799 44.5648 243.888 44.6309C243.979 44.6969 244.024 44.8109 244.024 44.9727C244.024 45.1322 243.979 45.2461 243.888 45.3145C243.799 45.3805 243.693 45.4136 243.57 45.4136C243.442 45.4136 243.334 45.3805 243.245 45.3145C243.159 45.2461 243.115 45.1322 243.115 44.9727C243.115 44.8109 243.159 44.6969 243.245 44.6309C243.334 44.5648 243.442 44.5317 243.57 44.5317ZM246.526 49.1836C246.631 49.1836 246.735 49.1745 246.837 49.1562C246.94 49.1357 247.033 49.1118 247.118 49.0845V49.6929C247.029 49.7316 246.914 49.7646 246.772 49.792C246.631 49.8193 246.484 49.833 246.332 49.833C246.117 49.833 245.925 49.7977 245.754 49.7271C245.583 49.6541 245.447 49.5299 245.347 49.3545C245.247 49.179 245.197 48.9364 245.197 48.6265V46.5928H244.681V46.2339L245.234 45.9502L245.498 45.1401H246.003V45.981H247.087V46.5928H246.003V48.6162C246.003 48.8076 246.051 48.95 246.147 49.0435C246.243 49.1369 246.369 49.1836 246.526 49.1836Z" fill="white"/>
<path d="M194.5 113.015C194.5 140.491 172.226 162.765 144.75 162.765C117.274 162.765 95 140.491 95 113.015C95 85.5385 117.274 63.2646 144.75 63.2646C172.226 63.2646 194.5 85.5385 194.5 113.015ZM100.97 113.015C100.97 137.194 120.571 156.795 144.75 156.795C168.929 156.795 188.53 137.194 188.53 113.015C188.53 88.8356 168.929 69.2346 144.75 69.2346C120.571 69.2346 100.97 88.8356 100.97 113.015Z" fill="#E6EDFF"/>
<path d="M184.55 113.015C184.55 134.996 166.731 152.815 144.75 152.815C122.769 152.815 104.95 134.996 104.95 113.015C104.95 91.0337 122.769 73.2146 144.75 73.2146C166.731 73.2146 184.55 91.0337 184.55 113.015ZM109.726 113.015C109.726 132.358 125.407 148.039 144.75 148.039C164.093 148.039 179.774 132.358 179.774 113.015C179.774 93.6714 164.093 77.9906 144.75 77.9906C125.407 77.9906 109.726 93.6714 109.726 113.015Z" fill="#E6EDFF"/>
<path d="M174.102 113.015C174.102 129.226 160.961 142.367 144.75 142.367C128.539 142.367 115.397 129.226 115.397 113.015C115.397 96.8037 128.539 83.6621 144.75 83.6621C160.961 83.6621 174.102 96.8037 174.102 113.015ZM118.92 113.015C118.92 127.28 130.484 138.845 144.75 138.845C159.016 138.845 170.58 127.28 170.58 113.015C170.58 98.749 159.016 87.1844 144.75 87.1844C130.484 87.1844 118.92 98.749 118.92 113.015Z" fill="#E6EDFF"/>
<path d="M139.958 66.4958C139.789 64.8559 140.982 63.3801 142.629 63.3098C151.938 62.9126 161.193 65.1374 169.329 69.7602C178.331 74.8756 185.513 82.6725 189.873 92.0638C194.234 101.455 195.555 111.973 193.654 122.151C191.752 132.329 186.722 141.66 179.265 148.844C171.808 156.028 162.296 160.705 152.054 162.226C141.812 163.746 131.351 162.032 122.129 157.324C112.907 152.616 105.384 145.148 100.608 135.961C96.2921 127.659 94.4144 118.326 95.1591 109.039C95.2908 107.396 96.8101 106.259 98.4425 106.489C100.075 106.719 101.201 108.229 101.083 109.874C100.503 117.928 102.162 126.008 105.905 133.207C110.108 141.292 116.728 147.864 124.843 152.007C132.959 156.15 142.164 157.658 151.177 156.32C160.19 154.983 168.561 150.866 175.124 144.545C181.686 138.223 186.112 130.012 187.785 121.055C189.459 112.098 188.296 102.842 184.459 94.5779C180.621 86.3135 174.301 79.4523 166.379 74.9507C159.324 70.9419 151.312 68.9823 143.242 69.2606C141.594 69.3174 140.127 68.1357 139.958 66.4958Z" fill="#546C83"/>
<path d="M141.564 75.7385C141.452 74.4244 142.427 73.2606 143.745 73.2273C149.649 73.0782 155.522 74.2446 160.935 76.6541C167.077 79.3879 172.426 83.6328 176.483 88.9928C180.541 94.3528 183.174 100.653 184.138 107.306C185.103 113.959 184.366 120.748 181.997 127.04C179.628 133.331 175.704 138.92 170.591 143.285C165.478 147.649 159.343 150.648 152.758 152.001C146.173 153.353 139.353 153.016 132.933 151.02C127.275 149.261 122.091 146.264 117.752 142.258C116.783 141.363 116.818 139.846 117.77 138.932C118.721 138.018 120.227 138.056 121.203 138.942C124.978 142.37 129.464 144.94 134.351 146.459C140 148.216 146.002 148.513 151.797 147.322C157.592 146.132 162.991 143.493 167.49 139.652C171.99 135.811 175.443 130.893 177.527 125.357C179.612 119.82 180.26 113.846 179.412 107.991C178.563 102.137 176.246 96.5922 172.675 91.8754C169.105 87.1586 164.397 83.4231 158.993 81.0174C154.317 78.936 149.251 77.9087 144.152 77.9957C142.834 78.0182 141.677 77.0525 141.564 75.7385Z" fill="#24C3FF"/>
<path d="M142.854 85.4885C142.787 84.5182 143.519 83.6718 144.492 83.6632C148.139 83.6312 151.766 84.2792 155.185 85.5796C159.153 87.089 162.747 89.4412 165.718 92.4741C168.689 95.507 170.967 99.1484 172.394 103.147C173.821 107.146 174.364 111.406 173.985 115.635C173.606 119.864 172.314 123.96 170.199 127.641C168.083 131.322 165.194 134.5 161.731 136.956C158.268 139.413 154.314 141.088 150.14 141.868C146.545 142.54 142.86 142.532 139.277 141.852C138.321 141.671 137.751 140.708 137.989 139.765C138.227 138.822 139.184 138.257 140.141 138.43C143.229 138.99 146.399 138.984 149.493 138.406C153.166 137.719 156.646 136.245 159.694 134.083C162.741 131.922 165.283 129.125 167.145 125.886C169.007 122.646 170.144 119.042 170.477 115.32C170.811 111.599 170.333 107.85 169.077 104.331C167.821 100.812 165.816 97.6079 163.202 94.939C160.587 92.27 157.425 90.2 153.933 88.8718C150.99 87.7526 147.873 87.1825 144.734 87.1844C143.762 87.185 142.92 86.4589 142.854 85.4885Z" fill="#3BB3C1"/>
<circle cx="39.5" cy="180.515" r="2" fill="#546C83"/>
<path d="M47.4014 183.015H46.9004V179.171H45.5527V178.731H48.7432V179.171H47.4014V183.015ZM52.0859 181.403C52.0859 181.667 52.0518 181.902 51.9834 182.109C51.915 182.316 51.8164 182.491 51.6875 182.634C51.5586 182.776 51.4023 182.886 51.2188 182.962C51.0371 183.036 50.8311 183.073 50.6006 183.073C50.3857 183.073 50.1885 183.036 50.0088 182.962C49.8311 182.886 49.6768 182.776 49.5459 182.634C49.417 182.491 49.3164 182.316 49.2441 182.109C49.1738 181.902 49.1387 181.667 49.1387 181.403C49.1387 181.052 49.1982 180.753 49.3174 180.507C49.4365 180.259 49.6064 180.07 49.8271 179.941C50.0498 179.811 50.3145 179.745 50.6211 179.745C50.9141 179.745 51.1699 179.811 51.3887 179.941C51.6094 180.072 51.7803 180.262 51.9014 180.51C52.0244 180.756 52.0859 181.054 52.0859 181.403ZM49.6426 181.403C49.6426 181.661 49.6768 181.885 49.7451 182.074C49.8135 182.264 49.9189 182.41 50.0615 182.514C50.2041 182.617 50.3877 182.669 50.6123 182.669C50.835 182.669 51.0176 182.617 51.1602 182.514C51.3047 182.41 51.4111 182.264 51.4795 182.074C51.5479 181.885 51.582 181.661 51.582 181.403C51.582 181.147 51.5479 180.927 51.4795 180.741C51.4111 180.554 51.3057 180.409 51.1631 180.308C51.0205 180.206 50.8359 180.155 50.6094 180.155C50.2754 180.155 50.0303 180.266 49.874 180.486C49.7197 180.707 49.6426 181.013 49.6426 181.403ZM53.9639 182.675C54.0439 182.675 54.126 182.668 54.21 182.654C54.2939 182.641 54.3623 182.624 54.415 182.604V182.982C54.3584 183.008 54.2793 183.029 54.1777 183.047C54.0781 183.064 53.9805 183.073 53.8848 183.073C53.7148 183.073 53.5605 183.044 53.4219 182.985C53.2832 182.925 53.1719 182.823 53.0879 182.681C53.0059 182.538 52.9648 182.341 52.9648 182.089V180.185H52.5078V179.947L52.9678 179.757L53.1611 179.06H53.4541V179.804H54.3945V180.185H53.4541V182.074C53.4541 182.275 53.5 182.426 53.5918 182.525C53.6855 182.625 53.8096 182.675 53.9639 182.675ZM56.2666 179.751C56.6494 179.751 56.9336 179.837 57.1191 180.009C57.3047 180.181 57.3975 180.455 57.3975 180.832V183.015H57.043L56.9492 182.54H56.9258C56.8359 182.657 56.7422 182.756 56.6445 182.836C56.5469 182.914 56.4336 182.974 56.3047 183.015C56.1777 183.054 56.0215 183.073 55.8359 183.073C55.6406 183.073 55.4668 183.039 55.3145 182.971C55.1641 182.902 55.0449 182.799 54.957 182.66C54.8711 182.521 54.8281 182.346 54.8281 182.133C54.8281 181.812 54.9551 181.566 55.209 181.395C55.4629 181.223 55.8496 181.129 56.3691 181.113L56.9229 181.09V180.894C56.9229 180.616 56.8633 180.422 56.7441 180.311C56.625 180.199 56.457 180.144 56.2402 180.144C56.0723 180.144 55.9121 180.168 55.7598 180.217C55.6074 180.266 55.4629 180.323 55.3262 180.39L55.1768 180.021C55.3213 179.946 55.4873 179.883 55.6748 179.83C55.8623 179.777 56.0596 179.751 56.2666 179.751ZM56.917 181.433L56.4277 181.453C56.0273 181.469 55.7451 181.534 55.5811 181.649C55.417 181.765 55.335 181.928 55.335 182.139C55.335 182.322 55.3906 182.458 55.502 182.546C55.6133 182.634 55.7607 182.678 55.9443 182.678C56.2295 182.678 56.4629 182.599 56.6445 182.44C56.8262 182.282 56.917 182.045 56.917 181.729V181.433ZM58.8887 183.015H58.3994V178.456H58.8887V183.015ZM62.668 178.731C63.2207 178.731 63.624 178.84 63.8779 179.057C64.1338 179.271 64.2617 179.58 64.2617 179.982C64.2617 180.164 64.2314 180.337 64.1709 180.501C64.1123 180.663 64.0166 180.807 63.8838 180.932C63.751 181.055 63.5762 181.152 63.3594 181.225C63.1445 181.295 62.8809 181.33 62.5684 181.33H62.0469V183.015H61.5488V178.731H62.668ZM62.6211 179.156H62.0469V180.902H62.5127C62.7861 180.902 63.0137 180.873 63.1953 180.814C63.3789 180.756 63.5166 180.661 63.6084 180.53C63.7002 180.397 63.7461 180.222 63.7461 180.003C63.7461 179.718 63.6553 179.506 63.4736 179.367C63.292 179.227 63.0078 179.156 62.6211 179.156ZM67.8535 181.403C67.8535 181.667 67.8193 181.902 67.751 182.109C67.6826 182.316 67.584 182.491 67.4551 182.634C67.3262 182.776 67.1699 182.886 66.9863 182.962C66.8047 183.036 66.5986 183.073 66.3682 183.073C66.1533 183.073 65.9561 183.036 65.7764 182.962C65.5986 182.886 65.4443 182.776 65.3135 182.634C65.1846 182.491 65.084 182.316 65.0117 182.109C64.9414 181.902 64.9062 181.667 64.9062 181.403C64.9062 181.052 64.9658 180.753 65.085 180.507C65.2041 180.259 65.374 180.07 65.5947 179.941C65.8174 179.811 66.082 179.745 66.3887 179.745C66.6816 179.745 66.9375 179.811 67.1562 179.941C67.377 180.072 67.5479 180.262 67.6689 180.51C67.792 180.756 67.8535 181.054 67.8535 181.403ZM65.4102 181.403C65.4102 181.661 65.4443 181.885 65.5127 182.074C65.5811 182.264 65.6865 182.41 65.8291 182.514C65.9717 182.617 66.1553 182.669 66.3799 182.669C66.6025 182.669 66.7852 182.617 66.9277 182.514C67.0723 182.41 67.1787 182.264 67.2471 182.074C67.3154 181.885 67.3496 181.661 67.3496 181.403C67.3496 181.147 67.3154 180.927 67.2471 180.741C67.1787 180.554 67.0732 180.409 66.9307 180.308C66.7881 180.206 66.6035 180.155 66.377 180.155C66.043 180.155 65.7979 180.266 65.6416 180.486C65.4873 180.707 65.4102 181.013 65.4102 181.403ZM69.1807 179.804V183.015H68.6943V179.804H69.1807ZM68.9434 178.603C69.0234 178.603 69.0918 178.629 69.1484 178.682C69.207 178.732 69.2363 178.812 69.2363 178.922C69.2363 179.029 69.207 179.109 69.1484 179.162C69.0918 179.215 69.0234 179.241 68.9434 179.241C68.8594 179.241 68.7891 179.215 68.7324 179.162C68.6777 179.109 68.6504 179.029 68.6504 178.922C68.6504 178.812 68.6777 178.732 68.7324 178.682C68.7891 178.629 68.8594 178.603 68.9434 178.603ZM71.7324 179.745C72.1133 179.745 72.4014 179.839 72.5967 180.026C72.792 180.212 72.8896 180.511 72.8896 180.923V183.015H72.4092V180.955C72.4092 180.688 72.3477 180.487 72.2246 180.354C72.1035 180.222 71.917 180.155 71.665 180.155C71.3096 180.155 71.0596 180.256 70.915 180.457C70.7705 180.658 70.6982 180.95 70.6982 181.333V183.015H70.2119V179.804H70.6045L70.6777 180.267H70.7041C70.7725 180.153 70.8594 180.059 70.9648 179.982C71.0703 179.904 71.1885 179.846 71.3193 179.807C71.4502 179.766 71.5879 179.745 71.7324 179.745ZM74.9287 182.675C75.0088 182.675 75.0908 182.668 75.1748 182.654C75.2588 182.641 75.3271 182.624 75.3799 182.604V182.982C75.3232 183.008 75.2441 183.029 75.1426 183.047C75.043 183.064 74.9453 183.073 74.8496 183.073C74.6797 183.073 74.5254 183.044 74.3867 182.985C74.248 182.925 74.1367 182.823 74.0527 182.681C73.9707 182.538 73.9297 182.341 73.9297 182.089V180.185H73.4727V179.947L73.9326 179.757L74.126 179.06H74.4189V179.804H75.3594V180.185H74.4189V182.074C74.4189 182.275 74.4648 182.426 74.5566 182.525C74.6504 182.625 74.7744 182.675 74.9287 182.675ZM78.1074 182.136C78.1074 182.341 78.0557 182.514 77.9521 182.654C77.8506 182.793 77.7041 182.897 77.5127 182.968C77.3232 183.038 77.0967 183.073 76.833 183.073C76.6084 183.073 76.4141 183.056 76.25 183.021C76.0859 182.985 75.9424 182.936 75.8193 182.871V182.423C75.9502 182.487 76.1064 182.546 76.2881 182.599C76.4697 182.651 76.6553 182.678 76.8447 182.678C77.1221 182.678 77.3232 182.633 77.4482 182.543C77.5732 182.453 77.6357 182.331 77.6357 182.177C77.6357 182.089 77.6104 182.012 77.5596 181.945C77.5107 181.877 77.4277 181.812 77.3105 181.749C77.1934 181.685 77.0312 181.614 76.8242 181.538C76.6191 181.46 76.4414 181.383 76.291 181.307C76.1426 181.229 76.0273 181.134 75.9453 181.022C75.8652 180.911 75.8252 180.767 75.8252 180.589C75.8252 180.317 75.9346 180.109 76.1533 179.965C76.374 179.818 76.6631 179.745 77.0205 179.745C77.2139 179.745 77.3945 179.765 77.5625 179.804C77.7324 179.841 77.8906 179.892 78.0371 179.956L77.873 180.346C77.7402 180.289 77.5986 180.241 77.4482 180.202C77.2979 180.163 77.1445 180.144 76.9883 180.144C76.7637 180.144 76.5908 180.181 76.4697 180.255C76.3506 180.329 76.291 180.431 76.291 180.56C76.291 180.659 76.3184 180.741 76.373 180.806C76.4297 180.87 76.5195 180.931 76.6426 180.987C76.7656 181.044 76.9277 181.11 77.1289 181.187C77.3301 181.261 77.5039 181.338 77.6504 181.418C77.7969 181.496 77.9092 181.592 77.9873 181.705C78.0674 181.816 78.1074 181.96 78.1074 182.136ZM82.9062 183.015H80.5215V178.731H82.9062V179.171H81.0195V180.557H82.7979V180.99H81.0195V182.575H82.9062V183.015ZM84.9834 179.751C85.3662 179.751 85.6504 179.837 85.8359 180.009C86.0215 180.181 86.1143 180.455 86.1143 180.832V183.015H85.7598L85.666 182.54H85.6426C85.5527 182.657 85.459 182.756 85.3613 182.836C85.2637 182.914 85.1504 182.974 85.0215 183.015C84.8945 183.054 84.7383 183.073 84.5527 183.073C84.3574 183.073 84.1836 183.039 84.0312 182.971C83.8809 182.902 83.7617 182.799 83.6738 182.66C83.5879 182.521 83.5449 182.346 83.5449 182.133C83.5449 181.812 83.6719 181.566 83.9258 181.395C84.1797 181.223 84.5664 181.129 85.0859 181.113L85.6396 181.09V180.894C85.6396 180.616 85.5801 180.422 85.4609 180.311C85.3418 180.199 85.1738 180.144 84.957 180.144C84.7891 180.144 84.6289 180.168 84.4766 180.217C84.3242 180.266 84.1797 180.323 84.043 180.39L83.8936 180.021C84.0381 179.946 84.2041 179.883 84.3916 179.83C84.5791 179.777 84.7764 179.751 84.9834 179.751ZM85.6338 181.433L85.1445 181.453C84.7441 181.469 84.4619 181.534 84.2979 181.649C84.1338 181.765 84.0518 181.928 84.0518 182.139C84.0518 182.322 84.1074 182.458 84.2188 182.546C84.3301 182.634 84.4775 182.678 84.6611 182.678C84.9463 182.678 85.1797 182.599 85.3613 182.44C85.543 182.282 85.6338 182.045 85.6338 181.729V181.433ZM88.5752 179.745C88.6396 179.745 88.707 179.749 88.7773 179.757C88.8477 179.763 88.9102 179.771 88.9648 179.783L88.9033 180.234C88.8506 180.221 88.792 180.21 88.7275 180.202C88.6631 180.194 88.6025 180.19 88.5459 180.19C88.417 180.19 88.2949 180.217 88.1797 180.27C88.0664 180.32 87.9668 180.395 87.8809 180.492C87.7949 180.588 87.7275 180.704 87.6787 180.841C87.6299 180.976 87.6055 181.126 87.6055 181.292V183.015H87.1162V179.804H87.5205L87.5732 180.396H87.5938C87.6602 180.276 87.7402 180.168 87.834 180.07C87.9277 179.971 88.0361 179.892 88.1592 179.833C88.2842 179.774 88.4229 179.745 88.5752 179.745ZM91.0918 179.745C91.4727 179.745 91.7607 179.839 91.9561 180.026C92.1514 180.212 92.249 180.511 92.249 180.923V183.015H91.7686V180.955C91.7686 180.688 91.707 180.487 91.584 180.354C91.4629 180.222 91.2764 180.155 91.0244 180.155C90.6689 180.155 90.4189 180.256 90.2744 180.457C90.1299 180.658 90.0576 180.95 90.0576 181.333V183.015H89.5713V179.804H89.9639L90.0371 180.267H90.0635C90.1318 180.153 90.2188 180.059 90.3242 179.982C90.4297 179.904 90.5479 179.846 90.6787 179.807C90.8096 179.766 90.9473 179.745 91.0918 179.745ZM94.4873 179.745C94.7607 179.745 94.9951 179.806 95.1904 179.927C95.3857 180.048 95.5352 180.218 95.6387 180.437C95.7422 180.653 95.7939 180.907 95.7939 181.198V181.5H93.5762C93.582 181.877 93.6758 182.164 93.8574 182.361C94.0391 182.559 94.2949 182.657 94.625 182.657C94.8281 182.657 95.0078 182.639 95.1641 182.602C95.3203 182.564 95.4824 182.51 95.6504 182.438V182.865C95.4883 182.938 95.3271 182.99 95.167 183.023C95.0088 183.057 94.8213 183.073 94.6045 183.073C94.2959 183.073 94.0264 183.011 93.7959 182.886C93.5674 182.759 93.3896 182.573 93.2627 182.329C93.1357 182.085 93.0723 181.786 93.0723 181.433C93.0723 181.087 93.1299 180.788 93.2451 180.536C93.3623 180.282 93.5264 180.087 93.7373 179.95C93.9502 179.813 94.2002 179.745 94.4873 179.745ZM94.4814 180.144C94.2217 180.144 94.0146 180.229 93.8604 180.398C93.7061 180.568 93.6143 180.806 93.585 181.11H95.2842C95.2822 180.919 95.252 180.751 95.1934 180.606C95.1367 180.46 95.0498 180.347 94.9326 180.267C94.8154 180.185 94.665 180.144 94.4814 180.144ZM97.7627 183.073C97.3564 183.073 97.0342 182.935 96.7959 182.657C96.5596 182.38 96.4414 181.968 96.4414 181.421C96.4414 180.868 96.5625 180.451 96.8047 180.17C97.0469 179.887 97.3691 179.745 97.7715 179.745C97.9414 179.745 98.0898 179.768 98.2168 179.812C98.3438 179.857 98.4531 179.918 98.5449 179.994C98.6367 180.068 98.7139 180.153 98.7764 180.249H98.8115C98.8037 180.188 98.7959 180.105 98.7881 180C98.7803 179.895 98.7764 179.809 98.7764 179.742V178.456H99.2627V183.015H98.8701L98.7969 182.558H98.7764C98.7158 182.653 98.6387 182.74 98.5449 182.818C98.4531 182.896 98.3428 182.959 98.2139 183.006C98.0869 183.051 97.9365 183.073 97.7627 183.073ZM97.8389 182.669C98.1826 182.669 98.4258 182.571 98.5684 182.376C98.7109 182.181 98.7822 181.891 98.7822 181.506V181.418C98.7822 181.01 98.7139 180.696 98.5771 180.478C98.4424 180.259 98.1963 180.149 97.8389 180.149C97.54 180.149 97.3164 180.265 97.168 180.495C97.0195 180.724 96.9453 181.036 96.9453 181.433C96.9453 181.827 97.0186 182.132 97.165 182.347C97.3135 182.562 97.5381 182.669 97.8389 182.669Z" fill="black" fill-opacity="0.8"/>
<circle cx="122.5" cy="180.515" r="2" fill="#24C3FF"/>
<path d="M130.205 178.731C130.758 178.731 131.161 178.84 131.415 179.057C131.671 179.271 131.799 179.58 131.799 179.982C131.799 180.164 131.769 180.337 131.708 180.501C131.649 180.663 131.554 180.807 131.421 180.932C131.288 181.055 131.113 181.152 130.896 181.225C130.682 181.295 130.418 181.33 130.105 181.33H129.584V183.015H129.086V178.731H130.205ZM130.158 179.156H129.584V180.902H130.05C130.323 180.902 130.551 180.873 130.732 180.814C130.916 180.756 131.054 180.661 131.146 180.53C131.237 180.397 131.283 180.222 131.283 180.003C131.283 179.718 131.192 179.506 131.011 179.367C130.829 179.227 130.545 179.156 130.158 179.156ZM135.391 181.403C135.391 181.667 135.356 181.902 135.288 182.109C135.22 182.316 135.121 182.491 134.992 182.634C134.863 182.776 134.707 182.886 134.523 182.962C134.342 183.036 134.136 183.073 133.905 183.073C133.69 183.073 133.493 183.036 133.313 182.962C133.136 182.886 132.981 182.776 132.851 182.634C132.722 182.491 132.621 182.316 132.549 182.109C132.479 181.902 132.443 181.667 132.443 181.403C132.443 181.052 132.503 180.753 132.622 180.507C132.741 180.259 132.911 180.07 133.132 179.941C133.354 179.811 133.619 179.745 133.926 179.745C134.219 179.745 134.475 179.811 134.693 179.941C134.914 180.072 135.085 180.262 135.206 180.51C135.329 180.756 135.391 181.054 135.391 181.403ZM132.947 181.403C132.947 181.661 132.981 181.885 133.05 182.074C133.118 182.264 133.224 182.41 133.366 182.514C133.509 182.617 133.692 182.669 133.917 182.669C134.14 182.669 134.322 182.617 134.465 182.514C134.609 182.41 134.716 182.264 134.784 182.074C134.853 181.885 134.887 181.661 134.887 181.403C134.887 181.147 134.853 180.927 134.784 180.741C134.716 180.554 134.61 180.409 134.468 180.308C134.325 180.206 134.141 180.155 133.914 180.155C133.58 180.155 133.335 180.266 133.179 180.486C133.024 180.707 132.947 181.013 132.947 181.403ZM136.718 179.804V183.015H136.231V179.804H136.718ZM136.48 178.603C136.561 178.603 136.629 178.629 136.686 178.682C136.744 178.732 136.773 178.812 136.773 178.922C136.773 179.029 136.744 179.109 136.686 179.162C136.629 179.215 136.561 179.241 136.48 179.241C136.396 179.241 136.326 179.215 136.27 179.162C136.215 179.109 136.188 179.029 136.188 178.922C136.188 178.812 136.215 178.732 136.27 178.682C136.326 178.629 136.396 178.603 136.48 178.603ZM139.27 179.745C139.65 179.745 139.938 179.839 140.134 180.026C140.329 180.212 140.427 180.511 140.427 180.923V183.015H139.946V180.955C139.946 180.688 139.885 180.487 139.762 180.354C139.641 180.222 139.454 180.155 139.202 180.155C138.847 180.155 138.597 180.256 138.452 180.457C138.308 180.658 138.235 180.95 138.235 181.333V183.015H137.749V179.804H138.142L138.215 180.267H138.241C138.31 180.153 138.396 180.059 138.502 179.982C138.607 179.904 138.726 179.846 138.856 179.807C138.987 179.766 139.125 179.745 139.27 179.745ZM142.466 182.675C142.546 182.675 142.628 182.668 142.712 182.654C142.796 182.641 142.864 182.624 142.917 182.604V182.982C142.86 183.008 142.781 183.029 142.68 183.047C142.58 183.064 142.482 183.073 142.387 183.073C142.217 183.073 142.062 183.044 141.924 182.985C141.785 182.925 141.674 182.823 141.59 182.681C141.508 182.538 141.467 182.341 141.467 182.089V180.185H141.01V179.947L141.47 179.757L141.663 179.06H141.956V179.804H142.896V180.185H141.956V182.074C141.956 182.275 142.002 182.426 142.094 182.525C142.188 182.625 142.312 182.675 142.466 182.675ZM145.645 182.136C145.645 182.341 145.593 182.514 145.489 182.654C145.388 182.793 145.241 182.897 145.05 182.968C144.86 183.038 144.634 183.073 144.37 183.073C144.146 183.073 143.951 183.056 143.787 183.021C143.623 182.985 143.479 182.936 143.356 182.871V182.423C143.487 182.487 143.644 182.546 143.825 182.599C144.007 182.651 144.192 182.678 144.382 182.678C144.659 182.678 144.86 182.633 144.985 182.543C145.11 182.453 145.173 182.331 145.173 182.177C145.173 182.089 145.147 182.012 145.097 181.945C145.048 181.877 144.965 181.812 144.848 181.749C144.73 181.685 144.568 181.614 144.361 181.538C144.156 181.46 143.979 181.383 143.828 181.307C143.68 181.229 143.564 181.134 143.482 181.022C143.402 180.911 143.362 180.767 143.362 180.589C143.362 180.317 143.472 180.109 143.69 179.965C143.911 179.818 144.2 179.745 144.558 179.745C144.751 179.745 144.932 179.765 145.1 179.804C145.27 179.841 145.428 179.892 145.574 179.956L145.41 180.346C145.277 180.289 145.136 180.241 144.985 180.202C144.835 180.163 144.682 180.144 144.525 180.144C144.301 180.144 144.128 180.181 144.007 180.255C143.888 180.329 143.828 180.431 143.828 180.56C143.828 180.659 143.855 180.741 143.91 180.806C143.967 180.87 144.057 180.931 144.18 180.987C144.303 181.044 144.465 181.11 144.666 181.187C144.867 181.261 145.041 181.338 145.188 181.418C145.334 181.496 145.446 181.592 145.524 181.705C145.604 181.816 145.645 181.96 145.645 182.136ZM149.178 178.731C149.73 178.731 150.134 178.84 150.388 179.057C150.644 179.271 150.771 179.58 150.771 179.982C150.771 180.164 150.741 180.337 150.681 180.501C150.622 180.663 150.526 180.807 150.394 180.932C150.261 181.055 150.086 181.152 149.869 181.225C149.654 181.295 149.391 181.33 149.078 181.33H148.557V183.015H148.059V178.731H149.178ZM149.131 179.156H148.557V180.902H149.022C149.296 180.902 149.523 180.873 149.705 180.814C149.889 180.756 150.026 180.661 150.118 180.53C150.21 180.397 150.256 180.222 150.256 180.003C150.256 179.718 150.165 179.506 149.983 179.367C149.802 179.227 149.518 179.156 149.131 179.156ZM152.831 179.745C153.104 179.745 153.339 179.806 153.534 179.927C153.729 180.048 153.879 180.218 153.982 180.437C154.086 180.653 154.138 180.907 154.138 181.198V181.5H151.92C151.926 181.877 152.02 182.164 152.201 182.361C152.383 182.559 152.639 182.657 152.969 182.657C153.172 182.657 153.352 182.639 153.508 182.602C153.664 182.564 153.826 182.51 153.994 182.438V182.865C153.832 182.938 153.671 182.99 153.511 183.023C153.353 183.057 153.165 183.073 152.948 183.073C152.64 183.073 152.37 183.011 152.14 182.886C151.911 182.759 151.733 182.573 151.606 182.329C151.479 182.085 151.416 181.786 151.416 181.433C151.416 181.087 151.474 180.788 151.589 180.536C151.706 180.282 151.87 180.087 152.081 179.95C152.294 179.813 152.544 179.745 152.831 179.745ZM152.825 180.144C152.565 180.144 152.358 180.229 152.204 180.398C152.05 180.568 151.958 180.806 151.929 181.11H153.628C153.626 180.919 153.596 180.751 153.537 180.606C153.48 180.46 153.394 180.347 153.276 180.267C153.159 180.185 153.009 180.144 152.825 180.144ZM156.423 179.745C156.487 179.745 156.555 179.749 156.625 179.757C156.695 179.763 156.758 179.771 156.812 179.783L156.751 180.234C156.698 180.221 156.64 180.21 156.575 180.202C156.511 180.194 156.45 180.19 156.394 180.19C156.265 180.19 156.143 180.217 156.027 180.27C155.914 180.32 155.814 180.395 155.729 180.492C155.643 180.588 155.575 180.704 155.526 180.841C155.478 180.976 155.453 181.126 155.453 181.292V183.015H154.964V179.804H155.368L155.421 180.396H155.441C155.508 180.276 155.588 180.168 155.682 180.07C155.775 179.971 155.884 179.892 156.007 179.833C156.132 179.774 156.271 179.745 156.423 179.745ZM163.917 178.731L162.771 183.015H162.271L161.421 180.132C161.396 180.05 161.371 179.968 161.348 179.886C161.326 179.802 161.306 179.723 161.286 179.648C161.267 179.572 161.25 179.506 161.236 179.449C161.225 179.391 161.216 179.347 161.21 179.317C161.206 179.347 161.198 179.39 161.187 179.446C161.177 179.503 161.163 179.568 161.146 179.643C161.13 179.717 161.11 179.796 161.087 179.88C161.065 179.964 161.042 180.049 161.017 180.135L160.19 183.015H159.689L158.553 178.731H159.071L159.76 181.418C159.783 181.508 159.805 181.597 159.824 181.685C159.846 181.771 159.864 181.854 159.88 181.937C159.897 182.019 159.913 182.099 159.927 182.177C159.94 182.255 159.953 182.331 159.965 182.405C159.975 182.329 159.987 182.25 160.003 182.168C160.019 182.084 160.035 181.999 160.053 181.913C160.072 181.827 160.093 181.74 160.114 181.652C160.138 181.564 160.162 181.477 160.188 181.389L160.958 178.731H161.471L162.273 181.409C162.301 181.501 162.326 181.592 162.35 181.682C162.373 181.771 162.394 181.859 162.411 181.945C162.431 182.029 162.447 182.11 162.461 182.188C162.477 182.265 162.49 182.337 162.502 182.405C162.516 182.31 162.532 182.209 162.552 182.104C162.571 181.998 162.594 181.888 162.619 181.772C162.646 181.657 162.676 181.538 162.707 181.415L163.396 178.731H163.917ZM165.757 179.745C166.03 179.745 166.265 179.806 166.46 179.927C166.655 180.048 166.805 180.218 166.908 180.437C167.012 180.653 167.063 180.907 167.063 181.198V181.5H164.846C164.852 181.877 164.945 182.164 165.127 182.361C165.309 182.559 165.564 182.657 165.895 182.657C166.098 182.657 166.277 182.639 166.434 182.602C166.59 182.564 166.752 182.51 166.92 182.438V182.865C166.758 182.938 166.597 182.99 166.437 183.023C166.278 183.057 166.091 183.073 165.874 183.073C165.565 183.073 165.296 183.011 165.065 182.886C164.837 182.759 164.659 182.573 164.532 182.329C164.405 182.085 164.342 181.786 164.342 181.433C164.342 181.087 164.399 180.788 164.515 180.536C164.632 180.282 164.796 180.087 165.007 179.95C165.22 179.813 165.47 179.745 165.757 179.745ZM165.751 180.144C165.491 180.144 165.284 180.229 165.13 180.398C164.976 180.568 164.884 180.806 164.854 181.11H166.554C166.552 180.919 166.521 180.751 166.463 180.606C166.406 180.46 166.319 180.347 166.202 180.267C166.085 180.185 165.935 180.144 165.751 180.144ZM169.126 179.745C169.399 179.745 169.634 179.806 169.829 179.927C170.024 180.048 170.174 180.218 170.277 180.437C170.381 180.653 170.433 180.907 170.433 181.198V181.5H168.215C168.221 181.877 168.314 182.164 168.496 182.361C168.678 182.559 168.934 182.657 169.264 182.657C169.467 182.657 169.646 182.639 169.803 182.602C169.959 182.564 170.121 182.51 170.289 182.438V182.865C170.127 182.938 169.966 182.99 169.806 183.023C169.647 183.057 169.46 183.073 169.243 183.073C168.935 183.073 168.665 183.011 168.435 182.886C168.206 182.759 168.028 182.573 167.901 182.329C167.774 182.085 167.711 181.786 167.711 181.433C167.711 181.087 167.769 180.788 167.884 180.536C168.001 180.282 168.165 180.087 168.376 179.95C168.589 179.813 168.839 179.745 169.126 179.745ZM169.12 180.144C168.86 180.144 168.653 180.229 168.499 180.398C168.345 180.568 168.253 180.806 168.224 181.11H169.923C169.921 180.919 169.891 180.751 169.832 180.606C169.775 180.46 169.688 180.347 169.571 180.267C169.454 180.185 169.304 180.144 169.12 180.144ZM171.742 178.456V180.823C171.742 180.901 171.739 180.997 171.733 181.11C171.728 181.222 171.723 181.32 171.719 181.406H171.739C171.78 181.355 171.84 181.28 171.918 181.181C171.998 181.081 172.065 181.001 172.12 180.94L173.187 179.804H173.758L172.466 181.175L173.852 183.015H173.266L172.132 181.494L171.742 181.852V183.015H171.259V178.456H171.742Z" fill="black" fill-opacity="0.8"/>
<circle cx="196.5" cy="180.515" r="2" fill="#3BB3C1"/>
<path d="M204.205 178.731C204.758 178.731 205.161 178.84 205.415 179.057C205.671 179.271 205.799 179.58 205.799 179.982C205.799 180.164 205.769 180.337 205.708 180.501C205.649 180.663 205.554 180.807 205.421 180.932C205.288 181.055 205.113 181.152 204.896 181.225C204.682 181.295 204.418 181.33 204.105 181.33H203.584V183.015H203.086V178.731H204.205ZM204.158 179.156H203.584V180.902H204.05C204.323 180.902 204.551 180.873 204.732 180.814C204.916 180.756 205.054 180.661 205.146 180.53C205.237 180.397 205.283 180.222 205.283 180.003C205.283 179.718 205.192 179.506 205.011 179.367C204.829 179.227 204.545 179.156 204.158 179.156ZM209.391 181.403C209.391 181.667 209.356 181.902 209.288 182.109C209.22 182.316 209.121 182.491 208.992 182.634C208.863 182.776 208.707 182.886 208.523 182.962C208.342 183.036 208.136 183.073 207.905 183.073C207.69 183.073 207.493 183.036 207.313 182.962C207.136 182.886 206.981 182.776 206.851 182.634C206.722 182.491 206.621 182.316 206.549 182.109C206.479 181.902 206.443 181.667 206.443 181.403C206.443 181.052 206.503 180.753 206.622 180.507C206.741 180.259 206.911 180.07 207.132 179.941C207.354 179.811 207.619 179.745 207.926 179.745C208.219 179.745 208.475 179.811 208.693 179.941C208.914 180.072 209.085 180.262 209.206 180.51C209.329 180.756 209.391 181.054 209.391 181.403ZM206.947 181.403C206.947 181.661 206.981 181.885 207.05 182.074C207.118 182.264 207.224 182.41 207.366 182.514C207.509 182.617 207.692 182.669 207.917 182.669C208.14 182.669 208.322 182.617 208.465 182.514C208.609 182.41 208.716 182.264 208.784 182.074C208.853 181.885 208.887 181.661 208.887 181.403C208.887 181.147 208.853 180.927 208.784 180.741C208.716 180.554 208.61 180.409 208.468 180.308C208.325 180.206 208.141 180.155 207.914 180.155C207.58 180.155 207.335 180.266 207.179 180.486C207.024 180.707 206.947 181.013 206.947 181.403ZM210.718 179.804V183.015H210.231V179.804H210.718ZM210.48 178.603C210.561 178.603 210.629 178.629 210.686 178.682C210.744 178.732 210.773 178.812 210.773 178.922C210.773 179.029 210.744 179.109 210.686 179.162C210.629 179.215 210.561 179.241 210.48 179.241C210.396 179.241 210.326 179.215 210.27 179.162C210.215 179.109 210.188 179.029 210.188 178.922C210.188 178.812 210.215 178.732 210.27 178.682C210.326 178.629 210.396 178.603 210.48 178.603ZM213.27 179.745C213.65 179.745 213.938 179.839 214.134 180.026C214.329 180.212 214.427 180.511 214.427 180.923V183.015H213.946V180.955C213.946 180.688 213.885 180.487 213.762 180.354C213.641 180.222 213.454 180.155 213.202 180.155C212.847 180.155 212.597 180.256 212.452 180.457C212.308 180.658 212.235 180.95 212.235 181.333V183.015H211.749V179.804H212.142L212.215 180.267H212.241C212.31 180.153 212.396 180.059 212.502 179.982C212.607 179.904 212.726 179.846 212.856 179.807C212.987 179.766 213.125 179.745 213.27 179.745ZM216.466 182.675C216.546 182.675 216.628 182.668 216.712 182.654C216.796 182.641 216.864 182.624 216.917 182.604V182.982C216.86 183.008 216.781 183.029 216.68 183.047C216.58 183.064 216.482 183.073 216.387 183.073C216.217 183.073 216.062 183.044 215.924 182.985C215.785 182.925 215.674 182.823 215.59 182.681C215.508 182.538 215.467 182.341 215.467 182.089V180.185H215.01V179.947L215.47 179.757L215.663 179.06H215.956V179.804H216.896V180.185H215.956V182.074C215.956 182.275 216.002 182.426 216.094 182.525C216.188 182.625 216.312 182.675 216.466 182.675ZM219.645 182.136C219.645 182.341 219.593 182.514 219.489 182.654C219.388 182.793 219.241 182.897 219.05 182.968C218.86 183.038 218.634 183.073 218.37 183.073C218.146 183.073 217.951 183.056 217.787 183.021C217.623 182.985 217.479 182.936 217.356 182.871V182.423C217.487 182.487 217.644 182.546 217.825 182.599C218.007 182.651 218.192 182.678 218.382 182.678C218.659 182.678 218.86 182.633 218.985 182.543C219.11 182.453 219.173 182.331 219.173 182.177C219.173 182.089 219.147 182.012 219.097 181.945C219.048 181.877 218.965 181.812 218.848 181.749C218.73 181.685 218.568 181.614 218.361 181.538C218.156 181.46 217.979 181.383 217.828 181.307C217.68 181.229 217.564 181.134 217.482 181.022C217.402 180.911 217.362 180.767 217.362 180.589C217.362 180.317 217.472 180.109 217.69 179.965C217.911 179.818 218.2 179.745 218.558 179.745C218.751 179.745 218.932 179.765 219.1 179.804C219.27 179.841 219.428 179.892 219.574 179.956L219.41 180.346C219.277 180.289 219.136 180.241 218.985 180.202C218.835 180.163 218.682 180.144 218.525 180.144C218.301 180.144 218.128 180.181 218.007 180.255C217.888 180.329 217.828 180.431 217.828 180.56C217.828 180.659 217.855 180.741 217.91 180.806C217.967 180.87 218.057 180.931 218.18 180.987C218.303 181.044 218.465 181.11 218.666 181.187C218.867 181.261 219.041 181.338 219.188 181.418C219.334 181.496 219.446 181.592 219.524 181.705C219.604 181.816 219.645 181.96 219.645 182.136ZM223.178 178.731C223.73 178.731 224.134 178.84 224.388 179.057C224.644 179.271 224.771 179.58 224.771 179.982C224.771 180.164 224.741 180.337 224.681 180.501C224.622 180.663 224.526 180.807 224.394 180.932C224.261 181.055 224.086 181.152 223.869 181.225C223.654 181.295 223.391 181.33 223.078 181.33H222.557V183.015H222.059V178.731H223.178ZM223.131 179.156H222.557V180.902H223.022C223.296 180.902 223.523 180.873 223.705 180.814C223.889 180.756 224.026 180.661 224.118 180.53C224.21 180.397 224.256 180.222 224.256 180.003C224.256 179.718 224.165 179.506 223.983 179.367C223.802 179.227 223.518 179.156 223.131 179.156ZM226.831 179.745C227.104 179.745 227.339 179.806 227.534 179.927C227.729 180.048 227.879 180.218 227.982 180.437C228.086 180.653 228.138 180.907 228.138 181.198V181.5H225.92C225.926 181.877 226.02 182.164 226.201 182.361C226.383 182.559 226.639 182.657 226.969 182.657C227.172 182.657 227.352 182.639 227.508 182.602C227.664 182.564 227.826 182.51 227.994 182.438V182.865C227.832 182.938 227.671 182.99 227.511 183.023C227.353 183.057 227.165 183.073 226.948 183.073C226.64 183.073 226.37 183.011 226.14 182.886C225.911 182.759 225.733 182.573 225.606 182.329C225.479 182.085 225.416 181.786 225.416 181.433C225.416 181.087 225.474 180.788 225.589 180.536C225.706 180.282 225.87 180.087 226.081 179.95C226.294 179.813 226.544 179.745 226.831 179.745ZM226.825 180.144C226.565 180.144 226.358 180.229 226.204 180.398C226.05 180.568 225.958 180.806 225.929 181.11H227.628C227.626 180.919 227.596 180.751 227.537 180.606C227.48 180.46 227.394 180.347 227.276 180.267C227.159 180.185 227.009 180.144 226.825 180.144ZM230.423 179.745C230.487 179.745 230.555 179.749 230.625 179.757C230.695 179.763 230.758 179.771 230.812 179.783L230.751 180.234C230.698 180.221 230.64 180.21 230.575 180.202C230.511 180.194 230.45 180.19 230.394 180.19C230.265 180.19 230.143 180.217 230.027 180.27C229.914 180.32 229.814 180.395 229.729 180.492C229.643 180.588 229.575 180.704 229.526 180.841C229.478 180.976 229.453 181.126 229.453 181.292V183.015H228.964V179.804H229.368L229.421 180.396H229.441C229.508 180.276 229.588 180.168 229.682 180.07C229.775 179.971 229.884 179.892 230.007 179.833C230.132 179.774 230.271 179.745 230.423 179.745ZM234.935 183.015L233.496 179.224H233.473C233.48 179.304 233.487 179.401 233.493 179.517C233.499 179.632 233.504 179.758 233.508 179.895C233.512 180.029 233.514 180.167 233.514 180.308V183.015H233.051V178.731H233.789L235.146 182.294H235.166L236.543 178.731H237.275V183.015H236.783V180.272C236.783 180.146 236.785 180.019 236.789 179.892C236.793 179.763 236.798 179.642 236.804 179.528C236.81 179.413 236.815 179.313 236.821 179.229H236.798L235.342 183.015H234.935ZM241.143 181.403C241.143 181.667 241.108 181.902 241.04 182.109C240.972 182.316 240.873 182.491 240.744 182.634C240.615 182.776 240.459 182.886 240.275 182.962C240.094 183.036 239.888 183.073 239.657 183.073C239.442 183.073 239.245 183.036 239.065 182.962C238.888 182.886 238.733 182.776 238.603 182.634C238.474 182.491 238.373 182.316 238.301 182.109C238.23 181.902 238.195 181.667 238.195 181.403C238.195 181.052 238.255 180.753 238.374 180.507C238.493 180.259 238.663 180.07 238.884 179.941C239.106 179.811 239.371 179.745 239.678 179.745C239.971 179.745 240.227 179.811 240.445 179.941C240.666 180.072 240.837 180.262 240.958 180.51C241.081 180.756 241.143 181.054 241.143 181.403ZM238.699 181.403C238.699 181.661 238.733 181.885 238.802 182.074C238.87 182.264 238.976 182.41 239.118 182.514C239.261 182.617 239.444 182.669 239.669 182.669C239.892 182.669 240.074 182.617 240.217 182.514C240.361 182.41 240.468 182.264 240.536 182.074C240.604 181.885 240.639 181.661 240.639 181.403C240.639 181.147 240.604 180.927 240.536 180.741C240.468 180.554 240.362 180.409 240.22 180.308C240.077 180.206 239.893 180.155 239.666 180.155C239.332 180.155 239.087 180.266 238.931 180.486C238.776 180.707 238.699 181.013 238.699 181.403ZM243.504 179.745C243.885 179.745 244.173 179.839 244.368 180.026C244.563 180.212 244.661 180.511 244.661 180.923V183.015H244.181V180.955C244.181 180.688 244.119 180.487 243.996 180.354C243.875 180.222 243.688 180.155 243.437 180.155C243.081 180.155 242.831 180.256 242.687 180.457C242.542 180.658 242.47 180.95 242.47 181.333V183.015H241.983V179.804H242.376L242.449 180.267H242.476C242.544 180.153 242.631 180.059 242.736 179.982C242.842 179.904 242.96 179.846 243.091 179.807C243.222 179.766 243.359 179.745 243.504 179.745ZM246.7 182.675C246.78 182.675 246.862 182.668 246.946 182.654C247.03 182.641 247.099 182.624 247.151 182.604V182.982C247.095 183.008 247.016 183.029 246.914 183.047C246.814 183.064 246.717 183.073 246.621 183.073C246.451 183.073 246.297 183.044 246.158 182.985C246.02 182.925 245.908 182.823 245.824 182.681C245.742 182.538 245.701 182.341 245.701 182.089V180.185H245.244V179.947L245.704 179.757L245.897 179.06H246.19V179.804H247.131V180.185H246.19V182.074C246.19 182.275 246.236 182.426 246.328 182.525C246.422 182.625 246.546 182.675 246.7 182.675ZM248.288 178.456V179.818C248.288 179.896 248.286 179.976 248.282 180.056C248.278 180.134 248.271 180.206 248.262 180.272H248.294C248.36 180.159 248.444 180.064 248.546 179.988C248.649 179.91 248.767 179.852 248.897 179.812C249.028 179.771 249.167 179.751 249.313 179.751C249.571 179.751 249.786 179.792 249.958 179.874C250.132 179.956 250.262 180.083 250.348 180.255C250.436 180.427 250.479 180.649 250.479 180.923V183.015H249.999V180.955C249.999 180.688 249.938 180.487 249.814 180.354C249.693 180.222 249.507 180.155 249.255 180.155C249.017 180.155 248.826 180.201 248.684 180.293C248.543 180.383 248.441 180.516 248.379 180.691C248.318 180.867 248.288 181.082 248.288 181.336V183.015H247.802V178.456H248.288Z" fill="black" fill-opacity="0.8"/>
</g>
<defs>
<filter id="filter0_d_12304_2873" x="0.5" y="0.764648" width="288.5" height="224.5" filterUnits="userSpaceOnUse" color-interpolation-filters="sRGB">
<feFlood flood-opacity="0" result="BackgroundImageFix"/>
<feColorMatrix in="SourceAlpha" type="matrix" values="0 0 0 0 0 0 0 0 0 0 0 0 0 0 0 0 0 0 127 0" result="hardAlpha"/>
<feOffset/>
<feGaussianBlur stdDeviation="13.5"/>
<feComposite in2="hardAlpha" operator="out"/>
<feColorMatrix type="matrix" values="0 0 0 0 0 0 0 0 0 0 0 0 0 0 0 0 0 0 0.08 0"/>
<feBlend mode="normal" in2="BackgroundImageFix" result="effect1_dropShadow_12304_2873"/>
<feBlend mode="normal" in="SourceGraphic" in2="effect1_dropShadow_12304_2873" result="shape"/>
</filter>
<filter id="filter1_d_12304_2873" x="176.5" y="33.2646" width="44.5" height="29" filterUnits="userSpaceOnUse" color-interpolation-filters="sRGB">
<feFlood flood-opacity="0" result="BackgroundImageFix"/>
<feColorMatrix in="SourceAlpha" type="matrix" values="0 0 0 0 0 0 0 0 0 0 0 0 0 0 0 0 0 0 127 0" result="hardAlpha"/>
<feOffset dy="1"/>
<feGaussianBlur stdDeviation="2.5"/>
<feComposite in2="hardAlpha" operator="out"/>
<feColorMatrix type="matrix" values="0 0 0 0 0.486275 0 0 0 0 0.552941 0 0 0 0 0.709804 0 0 0 0.12 0"/>
<feBlend mode="normal" in2="BackgroundImageFix" result="effect1_dropShadow_12304_2873"/>
<feBlend mode="normal" in="SourceGraphic" in2="effect1_dropShadow_12304_2873" result="shape"/>
</filter>
</defs>
</svg>
