<svg width="494" height="226" viewBox="0 0 494 226" fill="none" xmlns="http://www.w3.org/2000/svg">
<g filter="url(#filter0_d_12304_2895)">
<rect x="27.75" y="28.0146" width="438.5" height="170" rx="5.75" fill="white"/>
<rect x="27.75" y="28.0146" width="438.5" height="170" rx="5.75" stroke="#E6EDFF" stroke-width="0.5"/>
<path d="M40.2114 41.8398C41.0405 41.8398 41.6455 42.0098 42.0264 42.3496C42.4072 42.6895 42.5977 43.1655 42.5977 43.7778C42.5977 44.0562 42.5537 44.3213 42.4658 44.5732C42.3809 44.8223 42.2402 45.0435 42.0439 45.2368C41.8477 45.4272 41.5884 45.5781 41.2661 45.6895C40.9468 45.8008 40.5527 45.8564 40.084 45.8564H39.3984V48.2646H38.3438V41.8398H40.2114ZM40.1411 42.7144H39.3984V44.9775H39.9741C40.3052 44.9775 40.5864 44.9395 40.8179 44.8633C41.0493 44.7842 41.2251 44.6597 41.3452 44.4897C41.4653 44.3198 41.5254 44.0957 41.5254 43.8174C41.5254 43.4453 41.4126 43.1685 41.187 42.9868C40.9644 42.8052 40.6157 42.7144 40.1411 42.7144ZM48.082 45.8213C48.082 46.2256 48.0293 46.5845 47.9238 46.8979C47.8184 47.2114 47.6646 47.4766 47.4624 47.6934C47.2603 47.9072 47.0171 48.0713 46.7329 48.1855C46.4487 48.2969 46.1279 48.3525 45.7705 48.3525C45.4365 48.3525 45.1304 48.2969 44.8521 48.1855C44.5737 48.0713 44.332 47.9072 44.127 47.6934C43.9248 47.4766 43.7681 47.2114 43.6567 46.8979C43.5454 46.5845 43.4897 46.2256 43.4897 45.8213C43.4897 45.2852 43.582 44.8311 43.7666 44.459C43.9541 44.084 44.2207 43.7983 44.5664 43.6021C44.9121 43.4058 45.3237 43.3076 45.8013 43.3076C46.2495 43.3076 46.645 43.4058 46.9878 43.6021C47.3306 43.7983 47.5986 44.084 47.792 44.459C47.9854 44.834 48.082 45.2881 48.082 45.8213ZM44.5532 45.8213C44.5532 46.1758 44.5957 46.479 44.6807 46.731C44.7686 46.9829 44.9033 47.1763 45.085 47.311C45.2666 47.4429 45.501 47.5088 45.7881 47.5088C46.0752 47.5088 46.3096 47.4429 46.4912 47.311C46.6729 47.1763 46.8062 46.9829 46.8911 46.731C46.9761 46.479 47.0186 46.1758 47.0186 45.8213C47.0186 45.4668 46.9761 45.1665 46.8911 44.9204C46.8062 44.6714 46.6729 44.4824 46.4912 44.3535C46.3096 44.2217 46.0737 44.1558 45.7837 44.1558C45.356 44.1558 45.0439 44.2993 44.8477 44.5864C44.6514 44.8735 44.5532 45.2852 44.5532 45.8213ZM50.3013 43.3999V48.2646H49.2686V43.3999H50.3013ZM49.7915 41.5366C49.9497 41.5366 50.0859 41.5791 50.2002 41.6641C50.3174 41.749 50.376 41.8955 50.376 42.1035C50.376 42.3086 50.3174 42.4551 50.2002 42.543C50.0859 42.6279 49.9497 42.6704 49.7915 42.6704C49.6274 42.6704 49.4883 42.6279 49.374 42.543C49.2627 42.4551 49.207 42.3086 49.207 42.1035C49.207 41.8955 49.2627 41.749 49.374 41.6641C49.4883 41.5791 49.6274 41.5366 49.7915 41.5366ZM54.3179 43.3076C54.8657 43.3076 55.292 43.4497 55.5967 43.7339C55.9043 44.0151 56.0581 44.4678 56.0581 45.0918V48.2646H55.0254V45.2852C55.0254 44.9072 54.9478 44.6245 54.7925 44.437C54.6372 44.2466 54.397 44.1514 54.0718 44.1514C53.6001 44.1514 53.272 44.2964 53.0874 44.5864C52.9058 44.8765 52.8149 45.2969 52.8149 45.8477V48.2646H51.7822V43.3999H52.5864L52.7314 44.0591H52.7886C52.894 43.8892 53.0244 43.75 53.1797 43.6416C53.3379 43.5303 53.5137 43.4468 53.707 43.3911C53.9033 43.3354 54.1069 43.3076 54.3179 43.3076ZM59.3145 47.5176C59.4492 47.5176 59.5825 47.5059 59.7144 47.4824C59.8462 47.4561 59.9663 47.4253 60.0747 47.3901V48.1724C59.9604 48.2222 59.8125 48.2646 59.6309 48.2998C59.4492 48.335 59.2603 48.3525 59.064 48.3525C58.7886 48.3525 58.541 48.3071 58.3213 48.2163C58.1016 48.1226 57.9272 47.9629 57.7983 47.7373C57.6694 47.5117 57.605 47.1997 57.605 46.8013V44.1865H56.9414V43.7251L57.6533 43.3604L57.9917 42.3188H58.6421V43.3999H60.0352V44.1865H58.6421V46.7881C58.6421 47.0342 58.7036 47.2173 58.8267 47.3374C58.9497 47.4575 59.1123 47.5176 59.3145 47.5176ZM64.333 46.876C64.333 47.1953 64.2554 47.4648 64.1001 47.6846C63.9448 47.9043 63.7178 48.0713 63.4189 48.1855C63.123 48.2969 62.7598 48.3525 62.3291 48.3525C61.9893 48.3525 61.6963 48.3276 61.4502 48.2778C61.207 48.231 60.9771 48.1577 60.7603 48.0581V47.166C60.9917 47.2744 61.251 47.3682 61.5381 47.4473C61.8281 47.5264 62.1021 47.5659 62.3599 47.5659C62.6997 47.5659 62.9443 47.5132 63.0938 47.4077C63.2432 47.2993 63.3179 47.1558 63.3179 46.9771C63.3179 46.8716 63.2871 46.7778 63.2256 46.6958C63.167 46.6108 63.0557 46.5244 62.8916 46.4365C62.7305 46.3457 62.4932 46.2373 62.1797 46.1113C61.8721 45.9883 61.6128 45.8652 61.4019 45.7422C61.1909 45.6191 61.0312 45.4712 60.9229 45.2983C60.8145 45.1226 60.7603 44.8984 60.7603 44.626C60.7603 44.1953 60.9302 43.8687 61.27 43.646C61.6128 43.4204 62.0654 43.3076 62.6279 43.3076C62.9268 43.3076 63.208 43.3384 63.4717 43.3999C63.7383 43.4585 63.999 43.5449 64.2539 43.6592L63.9287 44.437C63.709 44.3403 63.4878 44.2612 63.2651 44.1997C63.0454 44.1353 62.8213 44.103 62.5928 44.103C62.3262 44.103 62.1226 44.144 61.9819 44.2261C61.8442 44.3081 61.7754 44.4253 61.7754 44.5776C61.7754 44.6919 61.8091 44.7886 61.8765 44.8677C61.9438 44.9468 62.0596 45.0259 62.2236 45.105C62.3906 45.1841 62.6221 45.2822 62.918 45.3994C63.208 45.5107 63.4585 45.6279 63.6694 45.751C63.8833 45.8711 64.0474 46.019 64.1616 46.1948C64.2759 46.3706 64.333 46.5977 64.333 46.876ZM69.7603 41.8398C70.5894 41.8398 71.1943 42.0098 71.5752 42.3496C71.9561 42.6895 72.1465 43.1655 72.1465 43.7778C72.1465 44.0562 72.1025 44.3213 72.0146 44.5732C71.9297 44.8223 71.7891 45.0435 71.5928 45.2368C71.3965 45.4272 71.1372 45.5781 70.8149 45.6895C70.4956 45.8008 70.1016 45.8564 69.6328 45.8564H68.9473V48.2646H67.8926V41.8398H69.7603ZM69.6899 42.7144H68.9473V44.9775H69.5229C69.854 44.9775 70.1353 44.9395 70.3667 44.8633C70.5981 44.7842 70.7739 44.6597 70.894 44.4897C71.0142 44.3198 71.0742 44.0957 71.0742 43.8174C71.0742 43.4453 70.9614 43.1685 70.7358 42.9868C70.5132 42.8052 70.1646 42.7144 69.6899 42.7144ZM75.2622 43.3076C75.6958 43.3076 76.0679 43.397 76.3784 43.5757C76.689 43.7544 76.9277 44.0078 77.0947 44.3359C77.2617 44.6641 77.3452 45.0566 77.3452 45.5137V46.0674H74.0977C74.1094 46.5391 74.2354 46.9023 74.4756 47.1572C74.7188 47.4121 75.0586 47.5396 75.4951 47.5396C75.8057 47.5396 76.084 47.5103 76.3301 47.4517C76.5791 47.3901 76.8354 47.3008 77.0991 47.1836V48.0229C76.856 48.1372 76.6084 48.2207 76.3564 48.2734C76.1045 48.3262 75.8027 48.3525 75.4512 48.3525C74.9736 48.3525 74.5532 48.2603 74.1899 48.0757C73.8296 47.8882 73.5469 47.6099 73.3418 47.2407C73.1396 46.8716 73.0386 46.4131 73.0386 45.8652C73.0386 45.3203 73.1309 44.8574 73.3154 44.4766C73.5 44.0957 73.7593 43.8057 74.0933 43.6064C74.4272 43.4072 74.8169 43.3076 75.2622 43.3076ZM75.2622 44.0854C74.937 44.0854 74.6733 44.1909 74.4712 44.4019C74.272 44.6128 74.1548 44.9219 74.1196 45.3291H76.3345C76.3315 45.0859 76.2905 44.8706 76.2114 44.6831C76.1353 44.4956 76.0181 44.3491 75.8599 44.2437C75.7046 44.1382 75.5054 44.0854 75.2622 44.0854ZM80.9751 43.3076C81.0571 43.3076 81.1465 43.312 81.2432 43.3208C81.3398 43.3296 81.4233 43.3413 81.4937 43.356L81.397 44.3228C81.3354 44.3052 81.2593 44.292 81.1685 44.2832C81.0806 44.2744 81.0015 44.27 80.9312 44.27C80.7466 44.27 80.5708 44.3008 80.4038 44.3623C80.2368 44.4209 80.0889 44.5117 79.96 44.6348C79.8311 44.7549 79.73 44.9058 79.6567 45.0874C79.5835 45.269 79.5469 45.48 79.5469 45.7202V48.2646H78.5098V43.3999H79.3184L79.459 44.2568H79.5073C79.604 44.084 79.7241 43.9258 79.8677 43.7822C80.0112 43.6387 80.1753 43.5244 80.3599 43.4395C80.5474 43.3516 80.7524 43.3076 80.9751 43.3076ZM90.0542 44.9907C90.0542 45.7144 89.9194 46.3193 89.6499 46.8057C89.3804 47.2891 88.9893 47.6538 88.4766 47.8999C87.9639 48.1431 87.3457 48.2646 86.6221 48.2646H84.8379V41.8398H86.8154C87.4805 41.8398 88.0547 41.96 88.5381 42.2002C89.0215 42.4375 89.395 42.7905 89.6587 43.2593C89.9224 43.7251 90.0542 44.3022 90.0542 44.9907ZM88.9556 45.0215C88.9556 44.4941 88.8721 44.0605 88.7051 43.7207C88.541 43.3809 88.2979 43.1289 87.9756 42.9648C87.6562 42.7979 87.2622 42.7144 86.7935 42.7144H85.8926V47.3813H86.6396C87.416 47.3813 87.9961 47.1836 88.3799 46.7881C88.7637 46.3926 88.9556 45.8037 88.9556 45.0215ZM93.2402 43.3076C93.8555 43.3076 94.3198 43.4438 94.6333 43.7163C94.9497 43.9888 95.1079 44.4136 95.1079 44.9907V48.2646H94.374L94.1763 47.5747H94.1411C94.0034 47.7505 93.8613 47.8955 93.7148 48.0098C93.5684 48.124 93.3984 48.209 93.2051 48.2646C93.0146 48.3232 92.7817 48.3525 92.5063 48.3525C92.2163 48.3525 91.957 48.2998 91.7285 48.1943C91.5 48.0859 91.3198 47.9219 91.188 47.7021C91.0562 47.4824 90.9902 47.2041 90.9902 46.8672C90.9902 46.3662 91.1763 45.9897 91.5483 45.7378C91.9233 45.4858 92.4888 45.3467 93.2446 45.3203L94.0884 45.2896V45.0347C94.0884 44.6978 94.0093 44.4575 93.8511 44.314C93.6958 44.1704 93.4761 44.0986 93.1919 44.0986C92.9487 44.0986 92.7129 44.1338 92.4844 44.2041C92.2559 44.2744 92.0332 44.3608 91.8164 44.4634L91.4824 43.7339C91.7197 43.6079 91.9893 43.5054 92.291 43.4263C92.5957 43.3472 92.9121 43.3076 93.2402 43.3076ZM94.084 45.9399L93.4556 45.9619C92.9399 45.9795 92.5781 46.0674 92.3701 46.2256C92.1621 46.3838 92.0581 46.6006 92.0581 46.876C92.0581 47.1162 92.1299 47.292 92.2734 47.4033C92.417 47.5117 92.606 47.5659 92.8403 47.5659C93.1978 47.5659 93.4937 47.4648 93.728 47.2627C93.9653 47.0576 94.084 46.7573 94.084 46.3618V45.9399ZM95.8198 43.3999H96.9448L97.9424 46.1772C97.9863 46.3032 98.0259 46.4277 98.061 46.5508C98.0991 46.6709 98.1313 46.7896 98.1577 46.9067C98.187 47.0239 98.2104 47.1411 98.228 47.2583H98.2544C98.2837 47.106 98.3247 46.936 98.3774 46.7485C98.4331 46.5581 98.4946 46.3677 98.562 46.1772L99.52 43.3999H100.632L98.5444 48.9326C98.4243 49.249 98.2764 49.5186 98.1006 49.7412C97.9277 49.9668 97.7227 50.1367 97.4854 50.251C97.248 50.3682 96.9771 50.4268 96.6724 50.4268C96.5259 50.4268 96.3984 50.418 96.29 50.4004C96.1816 50.3857 96.0894 50.3696 96.0132 50.3521V49.5259C96.0747 49.5405 96.1523 49.5537 96.2461 49.5654C96.3398 49.5771 96.4365 49.583 96.5361 49.583C96.7207 49.583 96.8804 49.5464 97.0151 49.4731C97.1499 49.3999 97.2642 49.2959 97.3579 49.1611C97.4517 49.0293 97.5293 48.8784 97.5908 48.7085L97.7622 48.2515L95.8198 43.3999Z" fill="black" fill-opacity="0.8"/>
<circle cx="355.5" cy="45.2646" r="2" fill="#546C83"/>
<path d="M365.041 46.4043C365.041 46.7005 364.968 46.9557 364.822 47.1699C364.679 47.3841 364.471 47.5482 364.2 47.6621C363.931 47.776 363.61 47.833 363.236 47.833C363.054 47.833 362.88 47.8228 362.713 47.8022C362.547 47.7817 362.39 47.7521 362.242 47.7134C362.096 47.6724 361.963 47.6234 361.842 47.5664V46.7939C362.045 46.8828 362.271 46.9637 362.522 47.0366C362.773 47.1073 363.028 47.1426 363.288 47.1426C363.5 47.1426 363.675 47.1152 363.814 47.0605C363.955 47.0036 364.06 46.9238 364.128 46.8213C364.197 46.7165 364.231 46.5946 364.231 46.4556C364.231 46.3075 364.191 46.1821 364.111 46.0796C364.032 45.9771 363.911 45.8836 363.749 45.7993C363.59 45.7127 363.389 45.6204 363.147 45.5225C362.983 45.4564 362.826 45.3812 362.676 45.2969C362.528 45.2126 362.396 45.1134 362.279 44.9995C362.163 44.8856 362.071 44.7511 362.002 44.5962C361.936 44.439 361.903 44.2544 361.903 44.0425C361.903 43.7599 361.971 43.5184 362.105 43.3179C362.242 43.1174 362.433 42.9635 362.679 42.8564C362.928 42.7493 363.217 42.6958 363.547 42.6958C363.809 42.6958 364.056 42.7231 364.286 42.7778C364.518 42.8325 364.746 42.91 364.969 43.0103L364.709 43.6699C364.504 43.5856 364.305 43.5184 364.111 43.4683C363.92 43.4181 363.724 43.3931 363.523 43.3931C363.35 43.3931 363.203 43.4193 363.083 43.4717C362.962 43.5241 362.869 43.5981 362.806 43.6938C362.744 43.7873 362.713 43.8989 362.713 44.0288C362.713 44.1746 362.749 44.2977 362.819 44.3979C362.892 44.4959 363.004 44.5859 363.154 44.668C363.307 44.75 363.503 44.8411 363.742 44.9414C364.018 45.0553 364.251 45.175 364.443 45.3003C364.637 45.4256 364.785 45.576 364.887 45.7515C364.99 45.9246 365.041 46.1423 365.041 46.4043ZM366.726 43.981V47.7646H365.923V43.981H366.726ZM366.33 42.5317C366.453 42.5317 366.559 42.5648 366.647 42.6309C366.739 42.6969 366.784 42.8109 366.784 42.9727C366.784 43.1322 366.739 43.2461 366.647 43.3145C366.559 43.3805 366.453 43.4136 366.33 43.4136C366.202 43.4136 366.094 43.3805 366.005 43.3145C365.918 43.2461 365.875 43.1322 365.875 42.9727C365.875 42.8109 365.918 42.6969 366.005 42.6309C366.094 42.5648 366.202 42.5317 366.33 42.5317ZM372.154 43.9092C372.578 43.9092 372.897 44.0186 373.111 44.2373C373.327 44.4561 373.436 44.807 373.436 45.29V47.7646H372.632V45.4336C372.632 45.1465 372.576 44.93 372.465 44.7842C372.353 44.6383 372.183 44.5654 371.956 44.5654C371.637 44.5654 371.406 44.668 371.265 44.873C371.126 45.0758 371.057 45.3709 371.057 45.7583V47.7646H370.253V45.4336C370.253 45.2422 370.228 45.0827 370.178 44.9551C370.13 44.8252 370.056 44.7284 369.956 44.6646C369.856 44.5985 369.729 44.5654 369.577 44.5654C369.356 44.5654 369.179 44.6156 369.047 44.7158C368.917 44.8161 368.824 44.9642 368.767 45.1602C368.71 45.3538 368.681 45.592 368.681 45.8745V47.7646H367.878V43.981H368.503L368.616 44.4902H368.661C368.738 44.3581 368.834 44.2498 368.948 44.1655C369.064 44.0789 369.193 44.0151 369.334 43.9741C369.475 43.9308 369.622 43.9092 369.775 43.9092C370.057 43.9092 370.296 43.9593 370.489 44.0596C370.683 44.1576 370.828 44.3079 370.923 44.5107H370.985C371.103 44.3057 371.269 44.1541 371.48 44.0562C371.692 43.9582 371.917 43.9092 372.154 43.9092ZM377.855 43.981V47.7646H377.223L377.113 47.2554H377.069C376.989 47.3853 376.888 47.4935 376.765 47.5801C376.642 47.6644 376.505 47.7271 376.354 47.7681C376.204 47.8114 376.046 47.833 375.879 47.833C375.595 47.833 375.351 47.7852 375.148 47.6895C374.947 47.5915 374.794 47.4411 374.687 47.2383C374.579 47.0355 374.526 46.7734 374.526 46.4521V43.981H375.333V46.3018C375.333 46.5957 375.392 46.8156 375.51 46.9614C375.631 47.1073 375.818 47.1802 376.071 47.1802C376.315 47.1802 376.508 47.13 376.652 47.0298C376.795 46.9295 376.897 46.7814 376.956 46.5854C377.018 46.3895 377.048 46.1491 377.048 45.8643V43.981H377.855ZM379.813 47.7646H379.007V42.4463H379.813V47.7646ZM382.445 43.9092C382.924 43.9092 383.285 44.0151 383.529 44.2271C383.775 44.439 383.898 44.7694 383.898 45.2183V47.7646H383.327L383.173 47.228H383.146C383.039 47.3647 382.928 47.4775 382.814 47.5664C382.701 47.6553 382.568 47.7214 382.418 47.7646C382.27 47.8102 382.089 47.833 381.875 47.833C381.649 47.833 381.447 47.792 381.27 47.71C381.092 47.6257 380.952 47.498 380.849 47.3271C380.747 47.1562 380.695 46.9398 380.695 46.6777C380.695 46.2881 380.84 45.9953 381.129 45.7993C381.421 45.6034 381.861 45.4951 382.449 45.4746L383.105 45.4507V45.2524C383.105 44.9904 383.043 44.8035 382.92 44.6919C382.8 44.5802 382.629 44.5244 382.408 44.5244C382.219 44.5244 382.035 44.5518 381.857 44.6064C381.68 44.6611 381.507 44.7284 381.338 44.8081L381.078 44.2407C381.263 44.1427 381.472 44.063 381.707 44.0015C381.944 43.9399 382.19 43.9092 382.445 43.9092ZM383.102 45.9565L382.613 45.9736C382.212 45.9873 381.93 46.0557 381.769 46.1787C381.607 46.3018 381.526 46.4704 381.526 46.6846C381.526 46.8714 381.582 47.0081 381.693 47.0947C381.805 47.179 381.952 47.2212 382.134 47.2212C382.412 47.2212 382.642 47.1426 382.825 46.9854C383.009 46.8258 383.102 46.5923 383.102 46.2847V45.9565ZM386.431 47.1836C386.535 47.1836 386.639 47.1745 386.742 47.1562C386.844 47.1357 386.938 47.1118 387.022 47.0845V47.6929C386.933 47.7316 386.818 47.7646 386.677 47.792C386.535 47.8193 386.389 47.833 386.236 47.833C386.022 47.833 385.829 47.7977 385.658 47.7271C385.487 47.6541 385.352 47.5299 385.251 47.3545C385.151 47.179 385.101 46.9364 385.101 46.6265V44.5928H384.585V44.2339L385.139 43.9502L385.402 43.1401H385.908V43.981H386.991V44.5928H385.908V46.6162C385.908 46.8076 385.956 46.95 386.051 47.0435C386.147 47.1369 386.273 47.1836 386.431 47.1836ZM388.594 43.981V47.7646H387.791V43.981H388.594ZM388.198 42.5317C388.321 42.5317 388.427 42.5648 388.516 42.6309C388.607 42.6969 388.652 42.8109 388.652 42.9727C388.652 43.1322 388.607 43.2461 388.516 43.3145C388.427 43.3805 388.321 43.4136 388.198 43.4136C388.07 43.4136 387.962 43.3805 387.873 43.3145C387.786 43.2461 387.743 43.1322 387.743 42.9727C387.743 42.8109 387.786 42.6969 387.873 42.6309C387.962 42.5648 388.07 42.5317 388.198 42.5317ZM393.096 45.8643C393.096 46.1787 393.055 46.4578 392.973 46.7017C392.891 46.9455 392.771 47.1517 392.614 47.3203C392.457 47.4867 392.267 47.6143 392.046 47.7031C391.825 47.7897 391.576 47.833 391.298 47.833C391.038 47.833 390.8 47.7897 390.583 47.7031C390.367 47.6143 390.179 47.4867 390.02 47.3203C389.862 47.1517 389.74 46.9455 389.654 46.7017C389.567 46.4578 389.524 46.1787 389.524 45.8643C389.524 45.4473 389.596 45.0941 389.739 44.8047C389.885 44.513 390.092 44.2909 390.361 44.1382C390.63 43.9855 390.95 43.9092 391.322 43.9092C391.67 43.9092 391.978 43.9855 392.245 44.1382C392.511 44.2909 392.72 44.513 392.87 44.8047C393.021 45.0964 393.096 45.4495 393.096 45.8643ZM390.351 45.8643C390.351 46.14 390.384 46.3758 390.45 46.5718C390.519 46.7677 390.623 46.9181 390.765 47.0229C390.906 47.1255 391.088 47.1768 391.312 47.1768C391.535 47.1768 391.717 47.1255 391.858 47.0229C392 46.9181 392.103 46.7677 392.169 46.5718C392.236 46.3758 392.269 46.14 392.269 45.8643C392.269 45.5885 392.236 45.355 392.169 45.1636C392.103 44.9699 392 44.8229 391.858 44.7227C391.717 44.6201 391.534 44.5688 391.308 44.5688C390.975 44.5688 390.733 44.6805 390.58 44.9038C390.427 45.1271 390.351 45.4473 390.351 45.8643ZM395.991 43.9092C396.417 43.9092 396.748 44.0197 396.985 44.2407C397.225 44.4595 397.344 44.8115 397.344 45.2969V47.7646H396.541V45.4473C396.541 45.1533 396.481 44.9334 396.36 44.7876C396.239 44.6395 396.052 44.5654 395.799 44.5654C395.432 44.5654 395.177 44.6782 395.034 44.9038C394.892 45.1294 394.822 45.4564 394.822 45.8848V47.7646H394.019V43.981H394.644L394.757 44.4937H394.801C394.883 44.3615 394.985 44.2533 395.105 44.1689C395.229 44.0824 395.365 44.0174 395.516 43.9741C395.668 43.9308 395.827 43.9092 395.991 43.9092ZM401.012 46.6846C401.012 46.9329 400.951 47.1426 400.831 47.3135C400.71 47.4844 400.533 47.6143 400.301 47.7031C400.071 47.7897 399.788 47.833 399.453 47.833C399.189 47.833 398.961 47.8136 398.77 47.7749C398.58 47.7384 398.402 47.6815 398.233 47.604V46.9102C398.413 46.9945 398.615 47.0674 398.838 47.1289C399.063 47.1904 399.277 47.2212 399.477 47.2212C399.741 47.2212 399.932 47.1802 400.048 47.0981C400.164 47.0138 400.222 46.9022 400.222 46.7632C400.222 46.6812 400.198 46.6082 400.15 46.5444C400.105 46.4784 400.018 46.4111 399.891 46.3428C399.765 46.2721 399.581 46.1878 399.337 46.0898C399.098 45.9941 398.896 45.8984 398.732 45.8027C398.568 45.707 398.444 45.592 398.359 45.4575C398.275 45.3208 398.233 45.1465 398.233 44.9346C398.233 44.5996 398.365 44.3455 398.629 44.1724C398.896 43.9969 399.248 43.9092 399.686 43.9092C399.918 43.9092 400.137 43.9331 400.342 43.981C400.549 44.0265 400.752 44.0938 400.95 44.1826L400.697 44.7876C400.526 44.7124 400.354 44.6509 400.181 44.603C400.01 44.5529 399.836 44.5278 399.658 44.5278C399.451 44.5278 399.292 44.5597 399.183 44.6235C399.076 44.6873 399.022 44.7785 399.022 44.897C399.022 44.9858 399.049 45.061 399.101 45.1226C399.153 45.1841 399.243 45.2456 399.371 45.3071C399.501 45.3687 399.681 45.445 399.911 45.5361C400.137 45.6227 400.332 45.7139 400.496 45.8096C400.662 45.903 400.79 46.0181 400.878 46.1548C400.967 46.2915 401.012 46.4681 401.012 46.6846Z" fill="black" fill-opacity="0.8"/>
<g filter="url(#filter1_d_12304_2895)">
<rect x="411.5" y="37.7646" width="45" height="15" rx="2" fill="white" shape-rendering="crispEdges"/>
<rect x="411.75" y="38.0146" width="44.5" height="14.5" rx="1.75" stroke="black" stroke-opacity="0.05" stroke-width="0.5" shape-rendering="crispEdges"/>
<path d="M424.066 42.7676L422.76 47.7646H421.865L421.031 44.7705C421.01 44.6976 420.987 44.611 420.962 44.5107C420.937 44.4105 420.912 44.3079 420.887 44.2031C420.864 44.0983 420.844 44.0026 420.826 43.916C420.81 43.8271 420.798 43.7588 420.792 43.7109C420.787 43.7588 420.777 43.826 420.761 43.9126C420.745 43.9992 420.725 44.0949 420.703 44.1997C420.682 44.3022 420.659 44.4048 420.634 44.5073C420.609 44.6076 420.586 44.6965 420.566 44.7739L419.746 47.7646H418.854L417.551 42.7676H418.375L419.096 45.6968C419.119 45.7902 419.142 45.8916 419.165 46.001C419.19 46.1081 419.212 46.2163 419.233 46.3257C419.256 46.4351 419.276 46.5422 419.294 46.647C419.313 46.7495 419.327 46.8429 419.339 46.9272C419.35 46.8407 419.365 46.745 419.383 46.6401C419.402 46.533 419.421 46.4248 419.441 46.3154C419.464 46.2038 419.487 46.0967 419.51 45.9941C419.535 45.8916 419.56 45.7993 419.585 45.7173L420.398 42.7676H421.198L422.029 45.7275C422.054 45.8118 422.078 45.9064 422.101 46.0112C422.126 46.116 422.15 46.2231 422.172 46.3325C422.195 46.4419 422.216 46.5479 422.234 46.6504C422.252 46.7529 422.267 46.8452 422.278 46.9272C422.294 46.8156 422.315 46.688 422.34 46.5444C422.365 46.4009 422.393 46.255 422.425 46.1069C422.457 45.9588 422.489 45.8221 422.521 45.6968L423.239 42.7676H424.066ZM426.199 43.9092C426.536 43.9092 426.825 43.9787 427.067 44.1177C427.308 44.2567 427.494 44.4538 427.624 44.709C427.754 44.9642 427.819 45.2695 427.819 45.625V46.0557H425.293C425.302 46.4225 425.4 46.7051 425.587 46.9033C425.776 47.1016 426.04 47.2007 426.38 47.2007C426.621 47.2007 426.838 47.1779 427.029 47.1323C427.223 47.0845 427.422 47.015 427.627 46.9238V47.5767C427.438 47.6655 427.246 47.7305 427.05 47.7715C426.854 47.8125 426.619 47.833 426.346 47.833C425.974 47.833 425.647 47.7612 425.365 47.6177C425.084 47.4718 424.865 47.2554 424.705 46.9683C424.548 46.6812 424.469 46.3245 424.469 45.8984C424.469 45.4746 424.541 45.1146 424.685 44.8184C424.828 44.5221 425.03 44.2965 425.29 44.1416C425.549 43.9867 425.852 43.9092 426.199 43.9092ZM426.199 44.5142C425.946 44.5142 425.741 44.5962 425.583 44.7603C425.429 44.9243 425.337 45.1647 425.31 45.4814H427.033C427.03 45.2923 426.999 45.1248 426.937 44.979C426.878 44.8332 426.787 44.7192 426.664 44.6372C426.543 44.5552 426.388 44.5142 426.199 44.5142ZM430.232 43.9092C430.569 43.9092 430.859 43.9787 431.1 44.1177C431.342 44.2567 431.527 44.4538 431.657 44.709C431.787 44.9642 431.852 45.2695 431.852 45.625V46.0557H429.326C429.335 46.4225 429.433 46.7051 429.62 46.9033C429.809 47.1016 430.074 47.2007 430.413 47.2007C430.655 47.2007 430.871 47.1779 431.062 47.1323C431.256 47.0845 431.456 47.015 431.661 46.9238V47.5767C431.472 47.6655 431.279 47.7305 431.083 47.7715C430.887 47.8125 430.652 47.833 430.379 47.833C430.007 47.833 429.681 47.7612 429.398 47.6177C429.118 47.4718 428.898 47.2554 428.738 46.9683C428.581 46.6812 428.502 46.3245 428.502 45.8984C428.502 45.4746 428.574 45.1146 428.718 44.8184C428.861 44.5221 429.063 44.2965 429.323 44.1416C429.583 43.9867 429.886 43.9092 430.232 43.9092ZM430.232 44.5142C429.979 44.5142 429.774 44.5962 429.617 44.7603C429.462 44.9243 429.371 45.1647 429.343 45.4814H431.066C431.064 45.2923 431.032 45.1248 430.97 44.979C430.911 44.8332 430.82 44.7192 430.697 44.6372C430.576 44.5552 430.421 44.5142 430.232 44.5142ZM433.561 42.4463V45.0166C433.561 45.1328 433.556 45.2604 433.547 45.3994C433.538 45.5361 433.529 45.6649 433.52 45.7856H433.537C433.596 45.7059 433.667 45.6125 433.749 45.5054C433.833 45.3983 433.913 45.3049 433.988 45.2251L435.144 43.981H436.066L434.552 45.6079L436.166 47.7646H435.222L434.012 46.1035L433.561 46.4897V47.7646H432.758V42.4463H433.561ZM437.577 47.7646H436.771V42.4463H437.577V47.7646ZM438.155 43.981H439.03L439.806 46.1411C439.84 46.2391 439.871 46.3359 439.898 46.4316C439.928 46.5251 439.953 46.6174 439.973 46.7085C439.996 46.7996 440.014 46.8908 440.028 46.9819H440.048C440.071 46.8634 440.103 46.7313 440.144 46.5854C440.187 46.4373 440.235 46.2892 440.288 46.1411L441.033 43.981H441.897L440.274 48.2842C440.181 48.5303 440.065 48.7399 439.929 48.9131C439.794 49.0885 439.635 49.2207 439.45 49.3096C439.266 49.4007 439.055 49.4463 438.818 49.4463C438.704 49.4463 438.605 49.4395 438.521 49.4258C438.436 49.4144 438.364 49.4019 438.305 49.3882V48.7456C438.353 48.757 438.413 48.7673 438.486 48.7764C438.559 48.7855 438.634 48.79 438.712 48.79C438.855 48.79 438.98 48.7616 439.084 48.7046C439.189 48.6476 439.278 48.5667 439.351 48.4619C439.424 48.3594 439.484 48.242 439.532 48.1099L439.666 47.7544L438.155 43.981Z" fill="black" fill-opacity="0.8"/>
<path fill-rule="evenodd" clip-rule="evenodd" d="M446.633 44.3977C446.744 44.287 446.923 44.287 447.034 44.3977L448.5 45.864L449.966 44.3977C450.077 44.287 450.256 44.287 450.367 44.3977C450.478 44.5083 450.478 44.6877 450.367 44.7984L448.7 46.465C448.59 46.5757 448.41 46.5757 448.3 46.465L446.633 44.7984C446.522 44.6877 446.522 44.5083 446.633 44.3977Z" fill="#7C8DB5"/>
</g>
<path d="M42.9946 69.6406C43.3159 69.6406 43.5985 69.6987 43.8423 69.8149C44.0884 69.9289 44.2798 70.0975 44.4165 70.3208C44.5532 70.5418 44.6216 70.813 44.6216 71.1343C44.6216 71.4852 44.5475 71.7882 44.3994 72.0435C44.2513 72.2964 44.0337 72.4912 43.7466 72.6279C43.4595 72.7646 43.1097 72.833 42.6973 72.833C42.4352 72.833 42.1903 72.8102 41.9624 72.7646C41.7368 72.7191 41.542 72.6507 41.3779 72.5596V71.835C41.5488 71.9307 41.7539 72.0093 41.9932 72.0708C42.2324 72.13 42.4614 72.1597 42.6802 72.1597C42.9126 72.1597 43.112 72.1255 43.2783 72.0571C43.4447 71.9888 43.5723 71.884 43.6611 71.7427C43.7523 71.6014 43.7979 71.4225 43.7979 71.2061C43.7979 70.9189 43.7056 70.6979 43.521 70.543C43.3387 70.3857 43.0527 70.3071 42.6631 70.3071C42.5264 70.3071 42.3805 70.3197 42.2256 70.3447C42.0729 70.3675 41.9453 70.3926 41.8428 70.4199L41.4907 70.2114L41.6787 67.7676H44.2764V68.4751H42.3862L42.2769 69.7192C42.3589 69.701 42.4569 69.6839 42.5708 69.668C42.6847 69.6497 42.826 69.6406 42.9946 69.6406ZM46.3647 67.4463V70.0166C46.3647 70.1328 46.3602 70.2604 46.3511 70.3994C46.342 70.5361 46.3328 70.6649 46.3237 70.7856H46.3408C46.4001 70.7059 46.4707 70.6125 46.5527 70.5054C46.637 70.3983 46.7168 70.3049 46.792 70.2251L47.9473 68.981H48.8701L47.356 70.6079L48.9692 72.7646H48.0259L46.8159 71.1035L46.3647 71.4897V72.7646H45.5615V67.4463H46.3647Z" fill="#7C8DB5"/>
<line x1="57" y1="70.0146" x2="454" y2="70.0147" stroke="#E6EDFF" stroke-width="0.5"/>
<path d="M44.3608 92.1675H43.6841V93.2646H42.8911V92.1675H40.6182V91.5591L42.9014 88.2539H43.6841V91.501H44.3608V92.1675ZM42.8911 91.501V90.2603C42.8911 90.1577 42.8922 90.054 42.8945 89.9492C42.8991 89.8421 42.9036 89.7396 42.9082 89.6416C42.9128 89.5436 42.9173 89.4536 42.9219 89.3716C42.9264 89.2873 42.9298 89.2178 42.9321 89.1631H42.9048C42.8615 89.2542 42.8136 89.3477 42.7612 89.4434C42.7088 89.5368 42.653 89.6279 42.5937 89.7168L41.3633 91.501H42.8911ZM45.8647 87.9463V90.5166C45.8647 90.6328 45.8602 90.7604 45.8511 90.8994C45.842 91.0361 45.8328 91.1649 45.8237 91.2856H45.8408C45.9001 91.2059 45.9707 91.1125 46.0527 91.0054C46.137 90.8983 46.2168 90.8049 46.292 90.7251L47.4473 89.481H48.3701L46.8559 91.1079L48.4692 93.2646H47.5259L46.3159 91.6035L45.8647 91.9897V93.2646H45.0615V87.9463H45.8647Z" fill="#7C8DB5"/>
<line x1="56.5002" y1="90.3716" x2="453.5" y2="90.6576" stroke="#E6EDFF" stroke-width="0.5"/>
<path d="M43.9883 109.909C43.9883 110.135 43.9427 110.331 43.8516 110.497C43.7604 110.663 43.6351 110.8 43.4756 110.907C43.3184 111.012 43.1361 111.087 42.9287 111.133V111.157C43.3275 111.207 43.6283 111.332 43.8311 111.533C44.0361 111.733 44.1387 111.999 44.1387 112.329C44.1387 112.618 44.0692 112.877 43.9302 113.105C43.7912 113.331 43.5781 113.508 43.291 113.638C43.0039 113.768 42.6348 113.833 42.1836 113.833C41.9124 113.833 41.6606 113.811 41.4282 113.768C41.1981 113.725 40.9793 113.655 40.772 113.56V112.845C40.9839 112.95 41.2095 113.031 41.4487 113.088C41.688 113.145 41.9147 113.173 42.1289 113.173C42.5459 113.173 42.8433 113.096 43.021 112.941C43.1987 112.784 43.2876 112.567 43.2876 112.292C43.2876 112.114 43.2409 111.968 43.1475 111.854C43.0563 111.74 42.9139 111.655 42.7202 111.598C42.5288 111.541 42.2816 111.512 41.9785 111.512H41.5376V110.866H41.9819C42.2713 110.866 42.5037 110.832 42.6792 110.764C42.8547 110.693 42.9811 110.596 43.0586 110.473C43.1383 110.35 43.1782 110.207 43.1782 110.042C43.1782 109.828 43.1087 109.662 42.9697 109.543C42.8307 109.423 42.6245 109.362 42.3511 109.362C42.1825 109.362 42.0286 109.382 41.8896 109.42C41.7529 109.459 41.6265 109.508 41.5103 109.567C41.394 109.627 41.2835 109.69 41.1787 109.759L40.7925 109.202C40.9816 109.06 41.2072 108.941 41.4692 108.843C41.7313 108.745 42.0366 108.696 42.3853 108.696C42.8979 108.696 43.2933 108.806 43.5713 109.027C43.8493 109.246 43.9883 109.54 43.9883 109.909ZM45.8647 108.446V111.017C45.8647 111.133 45.8602 111.26 45.8511 111.399C45.842 111.536 45.8328 111.665 45.8237 111.786H45.8408C45.9001 111.706 45.9707 111.612 46.0527 111.505C46.137 111.398 46.2168 111.305 46.292 111.225L47.4473 109.981H48.3701L46.856 111.608L48.4692 113.765H47.5259L46.3159 112.104L45.8647 112.49V113.765H45.0615V108.446H45.8647Z" fill="#7C8DB5"/>
<line x1="56.5" y1="111.015" x2="453.5" y2="111.015" stroke="#E6EDFF" stroke-width="0.5"/>
<path d="M44.1797 134.265H40.7959V133.66L42.0913 132.347C42.342 132.092 42.5482 131.872 42.71 131.688C42.8717 131.501 42.9914 131.324 43.0688 131.158C43.1486 130.991 43.1885 130.81 43.1885 130.614C43.1885 130.373 43.119 130.19 42.98 130.067C42.841 129.942 42.6576 129.879 42.4297 129.879C42.2132 129.879 42.0127 129.923 41.8281 130.009C41.6458 130.094 41.4567 130.214 41.2607 130.372L40.8198 129.842C40.9588 129.723 41.1069 129.615 41.2642 129.517C41.4237 129.419 41.6014 129.342 41.7974 129.285C41.9933 129.225 42.2166 129.196 42.4673 129.196C42.784 129.196 43.0575 129.253 43.2876 129.367C43.5177 129.478 43.6943 129.634 43.8174 129.835C43.9427 130.035 44.0054 130.269 44.0054 130.536C44.0054 130.805 43.9518 131.053 43.8447 131.281C43.7376 131.509 43.585 131.734 43.3867 131.958C43.1885 132.179 42.9526 132.419 42.6792 132.679L41.8145 133.523V133.561H44.1797V134.265ZM45.8647 128.946V131.517C45.8647 131.633 45.8602 131.76 45.8511 131.899C45.842 132.036 45.8328 132.165 45.8237 132.286H45.8408C45.9001 132.206 45.9707 132.112 46.0527 132.005C46.137 131.898 46.2168 131.805 46.292 131.725L47.4473 130.481H48.3701L46.856 132.108L48.4692 134.265H47.5259L46.3159 132.604L45.8647 132.99V134.265H45.0615V128.946H45.8647Z" fill="#7C8DB5"/>
<line x1="56.5" y1="131.515" x2="453.5" y2="131.515" stroke="#E6EDFF" stroke-width="0.5"/>
<path d="M43.1577 154.765H42.3511V151.548C42.3511 151.441 42.3522 151.334 42.3545 151.227C42.3568 151.12 42.359 151.015 42.3613 150.913C42.3659 150.81 42.3716 150.712 42.3784 150.619C42.3306 150.671 42.2713 150.728 42.2007 150.79C42.1323 150.851 42.0594 150.915 41.9819 150.981L41.4077 151.439L41.0044 150.93L42.4878 149.768H43.1577V154.765ZM45.8647 149.446V152.017C45.8647 152.133 45.8602 152.26 45.8511 152.399C45.842 152.536 45.8328 152.665 45.8237 152.786H45.8408C45.9001 152.706 45.9707 152.612 46.0527 152.505C46.137 152.398 46.2168 152.305 46.292 152.225L47.4473 150.981H48.3701L46.856 152.608L48.4692 154.765H47.5259L46.3159 153.104L45.8647 153.49V154.765H45.0615V149.446H45.8647Z" fill="#7C8DB5"/>
<line x1="56.5" y1="152.015" x2="453.5" y2="152.015" stroke="#E6EDFF" stroke-width="0.5"/>
<path d="M48.1924 172.763C48.1924 173.166 48.1605 173.527 48.0967 173.846C48.0352 174.163 47.9372 174.432 47.8027 174.653C47.6683 174.874 47.4928 175.042 47.2764 175.159C47.0599 175.275 46.7979 175.333 46.4902 175.333C46.1051 175.333 45.7873 175.232 45.5366 175.029C45.286 174.824 45.1003 174.53 44.9795 174.147C44.8587 173.762 44.7983 173.3 44.7983 172.763C44.7983 172.225 44.853 171.765 44.9624 171.382C45.0741 170.997 45.2541 170.702 45.5024 170.497C45.7508 170.292 46.0801 170.189 46.4902 170.189C46.8776 170.189 47.1966 170.292 47.4473 170.497C47.7002 170.699 47.887 170.993 48.0078 171.378C48.1309 171.761 48.1924 172.223 48.1924 172.763ZM45.6084 172.763C45.6084 173.184 45.6357 173.536 45.6904 173.819C45.7474 174.101 45.8408 174.313 45.9707 174.455C46.1006 174.594 46.2738 174.663 46.4902 174.663C46.7067 174.663 46.8799 174.594 47.0098 174.455C47.1396 174.316 47.2331 174.105 47.29 173.822C47.3493 173.54 47.3789 173.187 47.3789 172.763C47.3789 172.343 47.3504 171.993 47.2935 171.71C47.2365 171.427 47.1431 171.215 47.0132 171.074C46.8833 170.931 46.709 170.859 46.4902 170.859C46.2715 170.859 46.0972 170.931 45.9673 171.074C45.8397 171.215 45.7474 171.427 45.6904 171.71C45.6357 171.993 45.6084 172.343 45.6084 172.763Z" fill="#7C8DB5"/>
<line x1="56.5" y1="172.515" x2="453.5" y2="172.515" stroke="#E6EDFF" stroke-width="0.5"/>
<path d="M76.4263 190.265H75.6196V187.048C75.6196 186.941 75.6208 186.834 75.623 186.727C75.6253 186.62 75.6276 186.515 75.6299 186.413C75.6344 186.31 75.6401 186.212 75.647 186.119C75.5991 186.171 75.5399 186.228 75.4692 186.29C75.4009 186.351 75.328 186.415 75.2505 186.481L74.6763 186.939L74.2729 186.43L75.7563 185.268H76.4263V190.265ZM80.4321 185.268L78.5693 190.265H77.8174L79.6802 185.268H80.4321ZM83.1665 190.265H82.3599V187.048C82.3599 186.941 82.361 186.834 82.3633 186.727C82.3656 186.62 82.3678 186.515 82.3701 186.413C82.3747 186.31 82.3804 186.212 82.3872 186.119C82.3394 186.171 82.2801 186.228 82.2095 186.29C82.1411 186.351 82.0682 186.415 81.9907 186.481L81.4165 186.939L81.0132 186.43L82.4966 185.268H83.1665V190.265Z" fill="#7C8DB5"/>
<path d="M132.343 190.265H131.536V187.048C131.536 186.941 131.538 186.834 131.54 186.727C131.542 186.62 131.544 186.515 131.547 186.413C131.551 186.31 131.557 186.212 131.564 186.119C131.516 186.171 131.457 186.228 131.386 186.29C131.318 186.351 131.245 186.415 131.167 186.481L130.593 186.939L130.19 186.43L131.673 185.268H132.343V190.265ZM136.349 185.268L134.486 190.265H133.734L135.597 185.268H136.349ZM140.105 190.265H136.721V189.66L138.017 188.347C138.267 188.092 138.474 187.872 138.635 187.688C138.797 187.501 138.917 187.324 138.994 187.158C139.074 186.991 139.114 186.81 139.114 186.614C139.114 186.373 139.045 186.19 138.906 186.067C138.767 185.942 138.583 185.879 138.355 185.879C138.139 185.879 137.938 185.923 137.754 186.009C137.571 186.094 137.382 186.214 137.186 186.372L136.745 185.842C136.884 185.723 137.032 185.615 137.19 185.517C137.349 185.419 137.527 185.342 137.723 185.285C137.919 185.225 138.142 185.196 138.393 185.196C138.71 185.196 138.983 185.253 139.213 185.367C139.443 185.478 139.62 185.634 139.743 185.835C139.868 186.035 139.931 186.269 139.931 186.536C139.931 186.805 139.877 187.053 139.77 187.281C139.663 187.509 139.51 187.734 139.312 187.958C139.114 188.179 138.878 188.419 138.605 188.679L137.74 189.523V189.561H140.105V190.265Z" fill="#7C8DB5"/>
<path d="M188.26 190.265H187.453V187.048C187.453 186.941 187.454 186.834 187.456 186.727C187.459 186.62 187.461 186.515 187.463 186.413C187.468 186.31 187.473 186.212 187.48 186.119C187.432 186.171 187.373 186.228 187.302 186.29C187.234 186.351 187.161 186.415 187.084 186.481L186.51 186.939L186.106 186.43L187.59 185.268H188.26V190.265ZM192.265 185.268L190.403 190.265H189.651L191.513 185.268H192.265ZM195.83 186.409C195.83 186.635 195.785 186.831 195.694 186.997C195.602 187.163 195.477 187.3 195.318 187.407C195.16 187.512 194.978 187.587 194.771 187.633V187.657C195.17 187.707 195.47 187.832 195.673 188.033C195.878 188.233 195.981 188.499 195.981 188.829C195.981 189.118 195.911 189.377 195.772 189.605C195.633 189.831 195.42 190.008 195.133 190.138C194.846 190.268 194.477 190.333 194.026 190.333C193.754 190.333 193.503 190.311 193.27 190.268C193.04 190.225 192.821 190.155 192.614 190.06V189.345C192.826 189.45 193.052 189.531 193.291 189.588C193.53 189.645 193.757 189.673 193.971 189.673C194.388 189.673 194.685 189.596 194.863 189.441C195.041 189.284 195.13 189.067 195.13 188.792C195.13 188.614 195.083 188.468 194.99 188.354C194.898 188.24 194.756 188.155 194.562 188.098C194.371 188.041 194.124 188.012 193.821 188.012H193.38V187.366H193.824C194.113 187.366 194.346 187.332 194.521 187.264C194.697 187.193 194.823 187.096 194.901 186.973C194.98 186.85 195.02 186.707 195.02 186.542C195.02 186.328 194.951 186.162 194.812 186.043C194.673 185.923 194.467 185.862 194.193 185.862C194.024 185.862 193.871 185.882 193.732 185.92C193.595 185.959 193.469 186.008 193.352 186.067C193.236 186.127 193.126 186.19 193.021 186.259L192.635 185.702C192.824 185.56 193.049 185.441 193.311 185.343C193.573 185.245 193.879 185.196 194.227 185.196C194.74 185.196 195.135 185.306 195.413 185.527C195.691 185.746 195.83 186.04 195.83 186.409Z" fill="#7C8DB5"/>
<path d="M244.176 190.265H243.37V187.048C243.37 186.941 243.371 186.834 243.373 186.727C243.375 186.62 243.378 186.515 243.38 186.413C243.384 186.31 243.39 186.212 243.397 186.119C243.349 186.171 243.29 186.228 243.219 186.29C243.151 186.351 243.078 186.415 243 186.481L242.426 186.939L242.023 186.43L243.506 185.268H244.176V190.265ZM248.182 185.268L246.319 190.265H245.567L247.43 185.268H248.182ZM252.12 189.167H251.443V190.265H250.65V189.167H248.377V188.559L250.66 185.254H251.443V188.501H252.12V189.167ZM250.65 188.501V187.26C250.65 187.158 250.651 187.054 250.653 186.949C250.658 186.842 250.662 186.74 250.667 186.642C250.672 186.544 250.676 186.454 250.681 186.372C250.685 186.287 250.689 186.218 250.691 186.163H250.664C250.62 186.254 250.572 186.348 250.52 186.443C250.468 186.537 250.412 186.628 250.353 186.717L249.122 188.501H250.65Z" fill="#7C8DB5"/>
<path d="M300.093 190.265H299.286V187.048C299.286 186.941 299.287 186.834 299.29 186.727C299.292 186.62 299.294 186.515 299.297 186.413C299.301 186.31 299.307 186.212 299.314 186.119C299.266 186.171 299.207 186.228 299.136 186.29C299.068 186.351 298.995 186.415 298.917 186.481L298.343 186.939L297.94 186.43L299.423 185.268H300.093V190.265ZM304.099 185.268L302.236 190.265H301.484L303.347 185.268H304.099ZM306.17 187.141C306.491 187.141 306.774 187.199 307.018 187.315C307.264 187.429 307.455 187.597 307.592 187.821C307.729 188.042 307.797 188.313 307.797 188.634C307.797 188.985 307.723 189.288 307.575 189.543C307.427 189.796 307.209 189.991 306.922 190.128C306.635 190.265 306.285 190.333 305.873 190.333C305.611 190.333 305.366 190.31 305.138 190.265C304.912 190.219 304.717 190.151 304.553 190.06V189.335C304.724 189.431 304.929 189.509 305.169 189.571C305.408 189.63 305.637 189.66 305.856 189.66C306.088 189.66 306.287 189.625 306.454 189.557C306.62 189.489 306.748 189.384 306.837 189.243C306.928 189.101 306.973 188.923 306.973 188.706C306.973 188.419 306.881 188.198 306.696 188.043C306.514 187.886 306.228 187.807 305.839 187.807C305.702 187.807 305.556 187.82 305.401 187.845C305.248 187.868 305.121 187.893 305.018 187.92L304.666 187.711L304.854 185.268H307.452V185.975H305.562L305.452 187.219C305.534 187.201 305.632 187.184 305.746 187.168C305.86 187.15 306.001 187.141 306.17 187.141Z" fill="#7C8DB5"/>
<path d="M356.01 190.265H355.203V187.048C355.203 186.941 355.204 186.834 355.206 186.727C355.209 186.62 355.211 186.515 355.213 186.413C355.218 186.31 355.224 186.212 355.23 186.119C355.182 186.171 355.123 186.228 355.053 186.29C354.984 186.351 354.911 186.415 354.834 186.481L354.26 186.939L353.856 186.43L355.34 185.268H356.01V190.265ZM360.016 185.268L358.153 190.265H357.401L359.264 185.268H360.016ZM360.395 188.135C360.395 187.841 360.415 187.552 360.456 187.267C360.5 186.982 360.573 186.716 360.675 186.467C360.778 186.219 360.919 186 361.099 185.811C361.281 185.622 361.51 185.474 361.786 185.367C362.062 185.257 362.393 185.203 362.781 185.203C362.881 185.203 362.994 185.207 363.119 185.216C363.244 185.225 363.348 185.24 363.43 185.261V185.927C363.341 185.902 363.243 185.883 363.136 185.869C363.031 185.855 362.926 185.849 362.822 185.849C362.402 185.849 362.075 185.928 361.841 186.088C361.606 186.245 361.439 186.462 361.338 186.737C361.238 187.011 361.18 187.324 361.164 187.677H361.205C361.273 187.563 361.359 187.462 361.461 187.373C361.564 187.284 361.689 187.214 361.837 187.161C361.985 187.106 362.157 187.079 362.353 187.079C362.645 187.079 362.899 187.141 363.116 187.264C363.332 187.384 363.498 187.56 363.615 187.79C363.733 188.02 363.792 188.299 363.792 188.627C363.792 188.981 363.725 189.285 363.591 189.54C363.459 189.795 363.269 189.991 363.023 190.128C362.78 190.265 362.489 190.333 362.152 190.333C361.903 190.333 361.672 190.287 361.458 190.196C361.246 190.105 361.06 189.968 360.901 189.786C360.741 189.604 360.617 189.376 360.528 189.103C360.439 188.827 360.395 188.504 360.395 188.135ZM362.138 189.67C362.398 189.67 362.606 189.586 362.764 189.417C362.923 189.246 363.003 188.985 363.003 188.634C363.003 188.349 362.932 188.124 362.791 187.958C362.652 187.791 362.442 187.708 362.162 187.708C361.971 187.708 361.803 187.749 361.66 187.831C361.516 187.913 361.404 188.017 361.325 188.142C361.247 188.267 361.208 188.395 361.208 188.525C361.208 188.657 361.228 188.79 361.266 188.925C361.305 189.059 361.363 189.183 361.441 189.297C361.518 189.409 361.615 189.499 361.731 189.567C361.848 189.636 361.983 189.67 362.138 189.67Z" fill="#7C8DB5"/>
<path d="M411.926 190.265H411.12V187.048C411.12 186.941 411.121 186.834 411.123 186.727C411.125 186.62 411.128 186.515 411.13 186.413C411.134 186.31 411.14 186.212 411.147 186.119C411.099 186.171 411.04 186.228 410.969 186.29C410.901 186.351 410.828 186.415 410.75 186.481L410.176 186.939L409.773 186.43L411.256 185.268H411.926V190.265ZM415.932 185.268L414.069 190.265H413.317L415.18 185.268H415.932ZM416.875 190.265L418.837 185.972H416.243V185.268H419.702V185.818L417.74 190.265H416.875Z" fill="#7C8DB5"/>
<path d="M67.5 111.765C67.5 110.66 68.3954 109.765 69.5 109.765H76C77.1046 109.765 78 110.66 78 111.765V169.265H67.5V111.765Z" fill="#546C83"/>
<path d="M80 131.765C80 130.66 80.8954 129.765 82 129.765H88.5C89.6046 129.765 90.5 130.66 90.5 131.765V169.265H80V131.765Z" fill="#24C3FF"/>
<path d="M124.522 90.7079C124.534 89.6034 125.439 88.7176 126.543 88.7294L133.043 88.7989C134.147 88.8107 135.033 89.7156 135.021 90.8202L134.182 169.319L123.683 169.207L124.522 90.7079Z" fill="#546C83"/>
<path d="M136.5 151.765C136.5 150.66 137.396 149.765 138.5 149.765H145C146.105 149.765 147 150.66 147 151.765V169.265H136.5V151.765Z" fill="#24C3FF"/>
<path d="M178.588 131.347C178.6 130.242 179.505 129.356 180.609 129.368L187.109 129.438C188.213 129.449 189.099 130.354 189.087 131.459L188.682 169.318L178.183 169.206L178.588 131.347Z" fill="#546C83"/>
<path d="M191.001 111.265C191.001 110.16 191.896 109.265 193.001 109.265H199.501C200.605 109.265 201.501 110.16 201.501 111.265V169.265H191.001V111.265Z" fill="#24C3FF"/>
<path d="M291.305 110.927C291.317 109.822 292.222 108.936 293.326 108.948L299.826 109.018C300.93 109.029 301.816 109.934 301.804 111.039L301.181 169.318L290.682 169.206L291.305 110.927Z" fill="#546C83"/>
<path d="M303.499 151.765C303.499 150.66 304.394 149.765 305.499 149.765H311.999C313.104 149.765 313.999 150.66 313.999 151.765V169.265H303.499V151.765Z" fill="#24C3FF"/>
<path d="M237.38 150.809C237.392 149.705 238.297 148.819 239.401 148.831L245.901 148.9C247.005 148.912 247.891 149.817 247.879 150.922L247.682 169.319L237.183 169.207L237.38 150.809Z" fill="#546C83"/>
<path d="M250.001 160.765C250.001 159.66 250.896 158.765 252.001 158.765H258.501C259.605 158.765 260.501 159.66 260.501 160.765V169.265H250.001V160.765Z" fill="#24C3FF"/>
<path d="M347.959 143.401C347.97 142.297 348.875 141.411 349.98 141.423L356.479 141.492C357.584 141.504 358.47 142.409 358.458 143.514L358.182 169.318L347.683 169.206L347.959 143.401Z" fill="#546C83"/>
<path d="M360.5 131.765C360.5 130.66 361.395 129.765 362.5 129.765H369C370.104 129.765 371 130.66 371 131.765V169.265H360.5V131.765Z" fill="#24C3FF"/>
<path d="M402.797 111.7C402.809 110.596 403.714 109.71 404.819 109.722L411.318 109.791C412.423 109.803 413.309 110.708 413.297 111.812L412.682 169.318L402.183 169.206L402.797 111.7Z" fill="#546C83"/>
<path d="M415 111.765C415 110.66 415.895 109.765 417 109.765H423.5C424.604 109.765 425.5 110.66 425.5 111.765V169.265H415V111.765Z" fill="#24C3FF"/>
</g>
<defs>
<filter id="filter0_d_12304_2895" x="0.5" y="0.764648" width="493" height="224.5" filterUnits="userSpaceOnUse" color-interpolation-filters="sRGB">
<feFlood flood-opacity="0" result="BackgroundImageFix"/>
<feColorMatrix in="SourceAlpha" type="matrix" values="0 0 0 0 0 0 0 0 0 0 0 0 0 0 0 0 0 0 127 0" result="hardAlpha"/>
<feOffset/>
<feGaussianBlur stdDeviation="13.5"/>
<feComposite in2="hardAlpha" operator="out"/>
<feColorMatrix type="matrix" values="0 0 0 0 0 0 0 0 0 0 0 0 0 0 0 0 0 0 0.08 0"/>
<feBlend mode="normal" in2="BackgroundImageFix" result="effect1_dropShadow_12304_2895"/>
<feBlend mode="normal" in="SourceGraphic" in2="effect1_dropShadow_12304_2895" result="shape"/>
</filter>
<filter id="filter1_d_12304_2895" x="401.5" y="29.7646" width="65" height="35" filterUnits="userSpaceOnUse" color-interpolation-filters="sRGB">
<feFlood flood-opacity="0" result="BackgroundImageFix"/>
<feColorMatrix in="SourceAlpha" type="matrix" values="0 0 0 0 0 0 0 0 0 0 0 0 0 0 0 0 0 0 127 0" result="hardAlpha"/>
<feOffset dy="2"/>
<feGaussianBlur stdDeviation="5"/>
<feComposite in2="hardAlpha" operator="out"/>
<feColorMatrix type="matrix" values="0 0 0 0 0.486275 0 0 0 0 0.552941 0 0 0 0 0.709804 0 0 0 0.12 0"/>
<feBlend mode="normal" in2="BackgroundImageFix" result="effect1_dropShadow_12304_2895"/>
<feBlend mode="normal" in="SourceGraphic" in2="effect1_dropShadow_12304_2895" result="shape"/>
</filter>
</defs>
</svg>
