<svg width="30" height="31" viewBox="0 0 30 31" fill="none" xmlns="http://www.w3.org/2000/svg">
<g clip-path="url(#clip0_12441_1833)">
<path fill-rule="evenodd" clip-rule="evenodd" d="M15.0007 21.9334L27.0031 26.7685C27.9001 27.1281 28.9218 26.6999 29.285 25.8123C29.3926 25.5505 29.4339 25.2662 29.4052 24.9847C29.3765 24.7031 29.2787 24.433 29.1206 24.1983L16.4603 5.40509C15.9229 4.60739 14.8337 4.39177 14.0276 4.92362C13.826 5.05618 13.6542 5.22925 13.5231 5.43181L0.880785 24.1983C0.343364 24.9961 0.561273 26.0739 1.36735 26.6058C1.89557 26.9542 2.54526 26.9818 3.08168 26.7349L15.0007 21.9334Z" stroke="#253444" stroke-width="1.17188" stroke-miterlimit="22.9256" stroke-linecap="round" stroke-linejoin="round"/>
<path fill-rule="evenodd" clip-rule="evenodd" d="M7.03705 21.351L15 9.53066L22.9629 21.3511L15 18.1432L7.03705 21.351Z" fill="#24C3FF" stroke="#293A4B" stroke-width="1.17188" stroke-miterlimit="22.9256" stroke-linecap="round" stroke-linejoin="round"/>
</g>
<defs>
<clipPath id="clip0_12441_1833">
<rect width="30" height="30" fill="white" transform="matrix(-4.37114e-08 -1 -1 4.37114e-08 30 30.7646)"/>
</clipPath>
</defs>
</svg>
