<svg width="30" height="31" viewBox="0 0 30 31" fill="none" xmlns="http://www.w3.org/2000/svg">
<g clip-path="url(#clip0_12441_1842)">
<path fill-rule="evenodd" clip-rule="evenodd" d="M15.0007 9.59585L27.0031 4.76075C27.9001 4.40122 28.9218 4.82937 29.285 5.717C29.3926 5.97877 29.4339 6.26306 29.4052 6.54461C29.3765 6.82617 29.2787 7.09628 29.1206 7.33097L16.4603 26.1242C15.9229 26.9219 14.8337 27.1375 14.0276 26.6057C13.826 26.4731 13.6542 26.3001 13.5231 26.0975L0.880785 7.33097C0.343364 6.53321 0.561273 5.45538 1.36735 4.92353C1.89557 4.57507 2.54526 4.54753 3.08168 4.79439L15.0007 9.59585Z" stroke="#293A4B" stroke-width="1.17188" stroke-miterlimit="22.9256" stroke-linecap="round" stroke-linejoin="round"/>
<path fill-rule="evenodd" clip-rule="evenodd" d="M7.03705 10.1783L15 21.9986L22.9629 10.1782L15 13.3861L7.03705 10.1783Z" stroke="#293A4B" stroke-width="1.17188" stroke-miterlimit="22.9256" stroke-linecap="round" stroke-linejoin="round"/>
</g>
<defs>
<clipPath id="clip0_12441_1842">
<rect width="30" height="30" fill="white" transform="translate(30 0.764648) rotate(90)"/>
</clipPath>
</defs>
</svg>
