<svg width="30" height="24" viewBox="0 0 30 24" fill="none" xmlns="http://www.w3.org/2000/svg">
<path fill-rule="evenodd" clip-rule="evenodd" d="M15.0007 17.9334L27.0031 22.7685C27.9001 23.1281 28.9218 22.6999 29.285 21.8123C29.3926 21.5505 29.4339 21.2662 29.4052 20.9847C29.3765 20.7031 29.2787 20.433 29.1206 20.1983L16.4603 1.40509C15.9229 0.60739 14.8337 0.391766 14.0276 0.923622C13.826 1.05618 13.6542 1.22925 13.5231 1.43181L0.880785 20.1983C0.343364 20.9961 0.561273 22.0739 1.36735 22.6058C1.89557 22.9542 2.54526 22.9818 3.08168 22.7349L15.0007 17.9334Z" stroke="#253444" stroke-width="1.17188" stroke-miterlimit="22.9256" stroke-linecap="round" stroke-linejoin="round"/>
<path fill-rule="evenodd" clip-rule="evenodd" d="M7.03705 17.351L15 5.53066L22.9629 17.3511L15 14.1432L7.03705 17.351Z" fill="#E0EBEF" stroke="#293A4B" stroke-width="1.17188" stroke-miterlimit="22.9256" stroke-linecap="round" stroke-linejoin="round"/>
</svg>
