<svg width="40" height="41" viewBox="0 0 40 41" fill="none" xmlns="http://www.w3.org/2000/svg">
<rect y="0.764648" width="40" height="40" rx="4" fill="#0D4459"/>
<g clip-path="url(#clip0_12470_2162)">
<path fill-rule="evenodd" clip-rule="evenodd" d="M20.0025 9.38848C21.1237 9.39039 21.7059 10.9028 22.7569 11.2176C23.8388 11.5419 25.185 10.6168 26.1405 11.2271C27.0826 11.847 26.7714 13.4408 27.4886 14.2854C28.2273 15.155 29.8492 15.1196 30.3302 16.1604C30.7942 17.2022 29.688 18.3702 29.8436 19.4771C30.0039 20.6164 31.3877 21.4812 31.2405 22.6216C31.0792 23.7542 29.5296 24.1263 29.0739 25.1433C28.6052 26.1898 29.3111 27.6812 28.5827 28.5594C27.8468 29.4232 26.3458 28.8817 25.4243 29.4854C24.4755 30.1072 24.2796 31.7516 23.2015 32.0884C22.1252 32.4089 21.1493 31.125 20.0534 31.125C18.9256 31.125 17.8897 32.3993 16.804 32.0884C15.7287 31.7641 15.5881 30.1455 14.6666 29.5419C13.7178 28.9201 12.171 29.4204 11.4227 28.5595C10.6896 27.6937 11.4283 26.254 10.9737 25.2372C10.5049 24.1906 8.93833 23.7582 8.76491 22.6207C8.60741 21.488 9.99117 20.6845 10.1477 19.5786C10.308 18.4392 9.21959 17.2119 9.67617 16.1596C10.144 15.1197 11.734 15.2077 12.451 14.363C13.1898 13.4934 12.9236 11.8594 13.8657 11.2261C14.8098 10.6091 16.1007 11.56 17.1525 11.2452C18.2325 10.9219 18.8746 9.40188 20.0025 9.38848ZM14.4186 18.6554C14.8442 17.4826 15.6158 16.48 16.6058 15.7759C17.5686 15.0919 18.7386 14.6911 20.0013 14.6911C21.264 14.6911 22.4342 15.0919 23.3968 15.7759C24.3878 16.479 25.1584 17.4816 25.585 18.6554C25.6328 18.7874 25.7753 18.8554 25.9056 18.8066C26.035 18.7578 26.1015 18.6124 26.0537 18.4794C25.5915 17.2071 24.7562 16.1194 23.6828 15.357C22.6384 14.6156 21.37 14.1813 20.0021 14.1813C18.6343 14.1813 17.366 14.6156 16.3215 15.357C15.2481 16.1194 14.4118 17.2061 13.9506 18.4794C13.9028 18.6114 13.9693 18.7578 14.0987 18.8066C14.2271 18.8554 14.3706 18.7874 14.4184 18.6554H14.4186ZM25.5841 22.8743C25.1585 24.0471 24.3869 25.0497 23.3969 25.7538C22.4341 26.4378 21.2641 26.8386 20.0014 26.8386C18.7387 26.8386 17.5685 26.4378 16.6059 25.7538C15.615 25.0507 14.8443 24.0481 14.4187 22.8743C14.3709 22.7423 14.2284 22.6743 14.0981 22.7231C13.9687 22.7719 13.9022 22.9173 13.95 23.0503C14.4122 24.3226 15.2475 25.4103 16.3209 26.1727C17.3653 26.9141 18.6337 27.3484 20.0015 27.3484C21.3694 27.3484 22.6377 26.9141 23.6822 26.1727C24.7556 25.4103 25.5919 24.3236 26.0531 23.0503C26.1009 22.9183 26.0344 22.7719 25.905 22.7231C25.7756 22.6743 25.6322 22.7423 25.5844 22.8743H25.5841ZM20.427 17.3785C20.3661 17.1872 20.1992 17.0628 20.0014 17.0628C19.8045 17.0628 19.6367 17.1872 19.5758 17.3785L19.0405 19.0708C18.9495 19.3588 18.6973 19.5453 18.4011 19.5453L16.6583 19.5424C16.4614 19.5415 16.2927 19.6658 16.2317 19.8581C16.1708 20.0495 16.2345 20.2504 16.3948 20.369L17.8067 21.4117C18.0467 21.5887 18.1433 21.8919 18.0514 22.1789L17.5095 23.8693C17.4486 24.0606 17.5123 24.2615 17.6717 24.3801C17.8311 24.4987 18.0383 24.4978 18.1976 24.3791L19.5298 23.3871C19.8158 23.1747 20.187 23.1747 20.473 23.3871L21.8052 24.3791C21.9645 24.4978 22.1717 24.4978 22.3311 24.3801C22.4905 24.2615 22.5542 24.0606 22.4933 23.8693L21.9514 22.1789C21.8595 21.891 21.9561 21.5887 22.1961 21.4117L23.608 20.369C23.7683 20.2513 23.832 20.0494 23.7711 19.8581C23.7101 19.6668 23.5423 19.5424 23.3445 19.5424L21.6017 19.5453C21.3055 19.5463 21.0533 19.3588 20.9623 19.0708L20.427 17.3785ZM20.0014 13.4028C16.0169 13.4028 12.7865 16.6984 12.7865 20.765C12.7865 24.8315 16.0172 28.1271 20.0014 28.1271C23.9856 28.1271 27.2163 24.8305 27.2163 20.765C27.2163 16.6994 23.9866 13.4028 20.0014 13.4028Z" fill="#24C3FF"/>
</g>
<defs>
<clipPath id="clip0_12470_2162">
<rect width="24" height="24" fill="white" transform="translate(8 8.76465)"/>
</clipPath>
</defs>
</svg>
