<svg width="41" height="41" viewBox="0 0 41 41" fill="none" xmlns="http://www.w3.org/2000/svg">
<rect x="0.333496" y="0.764648" width="40" height="40" rx="2.4" fill="#0D4459"/>
<path d="M31.2967 31.3582H30.5467V17.4834C30.5467 17.0951 30.2319 16.7803 29.8436 16.7803H27.0311C26.6428 16.7803 26.328 17.0951 26.328 17.4834V31.3582H24.9218V22.1708C24.9218 21.7825 24.607 21.4677 24.2187 21.4677H21.4062C21.0179 21.4677 20.7031 21.7825 20.7031 22.1708V31.3582H19.2968V24.7489C19.2968 24.3606 18.982 24.0458 18.5937 24.0458H15.7813C15.393 24.0458 15.0782 24.3606 15.0782 24.7489V31.3582H13.6719V26.4364C13.6719 26.0481 13.3571 25.7333 12.9688 25.7333H10.1563C9.76804 25.7333 9.45323 26.0481 9.45323 26.4364V31.3582H8.70324C8.31493 31.3582 8.00012 31.673 8.00012 32.0613C8.00012 32.4496 8.31493 32.7644 8.70324 32.7644H31.2967C31.685 32.7644 31.9998 32.4496 31.9998 32.0613C31.9998 31.673 31.685 31.3582 31.2967 31.3582Z" fill="#24C3FF"/>
<path d="M8.70324 23.8726C13.0915 23.8726 17.8503 22.2966 22.103 19.4349C25.4337 17.1936 28.2101 14.3303 29.9347 11.3985L30.6176 13.9469C30.7017 14.261 31.1082 14.5324 31.4787 14.444C31.8564 14.354 32.0763 13.958 31.9758 13.5829L30.8245 9.28594C30.7239 8.9109 30.3386 8.68825 29.9633 8.78879L25.6664 9.94017C25.2913 10.0407 25.0687 10.4262 25.1692 10.8013C25.2698 11.1764 25.6551 11.399 26.0303 11.2984L28.7985 10.5567C27.1895 13.3526 24.5305 16.1063 21.3179 18.2681C17.2948 20.9754 12.8148 22.4664 8.70324 22.4664C8.31493 22.4664 8.00012 22.7812 8.00012 23.1695C8.00012 23.5578 8.31493 23.8726 8.70324 23.8726Z" fill="#24C3FF"/>
</svg>
