<svg width="41" height="41" viewBox="0 0 41 41" fill="none" xmlns="http://www.w3.org/2000/svg">
<rect x="0.666748" y="0.764648" width="40" height="40" rx="4" fill="#0D4459"/>
<path fill-rule="evenodd" clip-rule="evenodd" d="M25.3857 13.5269C25.7053 14.0818 25.9321 14.6824 26.0642 15.3005H27.2224V17.943H26.0642C25.9311 18.5611 25.7053 19.1617 25.3857 19.7166L26.2033 20.6007L24.4755 22.4692L23.6579 21.584C23.1448 21.9317 22.5894 22.1759 22.0178 22.3187V23.5702H19.5752V22.3187C19.0016 22.1748 18.4472 21.9306 17.9351 21.5851L17.1166 22.4692L15.3887 20.6007L16.2073 19.7166C15.8857 19.1617 15.6599 18.5611 15.5279 17.943H14.3706V15.3005H15.5279C15.6609 14.6824 15.8867 14.0818 16.2073 13.5269L15.3887 12.6428L17.1166 10.7744L17.9351 11.6595C18.4472 11.3118 19.0027 11.0676 19.5752 10.9248V9.67334H22.0178V10.9248C22.5893 11.0687 23.1448 11.3129 23.6579 11.6584L24.4755 10.7744L26.2033 12.6428L25.3857 13.5269ZM28.3857 20.4894L29.1892 23.1787L31.8021 23.1733L29.6841 24.8292L30.4966 27.5152L28.3857 25.8495L26.2748 27.5152L27.0873 24.8292L24.9714 23.1733L27.5843 23.1787L28.3867 20.4894H28.3857ZM20.795 24.8292L21.5984 27.5185L24.2114 27.5131L22.0934 29.1701L22.9059 31.855L20.795 30.1893L18.6841 31.855L19.4966 29.1701L17.3807 27.5131L19.9936 27.5185L20.796 24.8292H20.795ZM13.2053 20.4894L14.0088 23.1787L16.6217 23.1733L14.5037 24.8292L15.3162 27.5152L13.2053 25.8495L11.0944 27.5152L11.9069 24.8292L9.79102 23.1733L12.4039 23.1787L13.2063 20.4894H13.2053ZM17.8696 19.7874C16.2527 18.0388 16.2527 15.2045 17.8696 13.4559C19.4855 11.7084 22.1065 11.7084 23.7235 13.4559C25.3395 15.2044 25.3395 18.0387 23.7235 19.7874C22.1066 21.5348 19.4856 21.5348 17.8696 19.7874ZM18.0188 19.081C18.4099 18.4171 18.9946 17.9102 19.6811 17.6432C18.7143 16.8964 18.5934 15.3899 19.4351 14.4785C20.1861 13.6664 21.4049 13.6664 22.1549 14.4785C22.9976 15.3898 22.8776 16.8964 21.9109 17.6432C22.5964 17.9102 23.1811 18.4182 23.5732 19.081C24.7355 17.5505 24.6448 15.2951 23.3343 13.8777C21.9321 12.3614 19.66 12.3614 18.2576 13.8777C16.9462 15.2949 16.8565 17.5492 18.0188 19.081ZM23.179 19.5236C22.4018 18.0519 20.6468 17.5875 19.3352 18.4814C18.9531 18.742 18.6356 19.0995 18.4108 19.5236C19.7676 20.8295 21.8221 20.8295 23.179 19.5236ZM20.794 17.4316C22.0167 17.4316 22.6276 15.8303 21.7667 14.8982C21.2315 14.3194 20.3615 14.3194 19.8262 14.8982C19.2889 15.4771 19.2889 16.4178 19.8262 16.9967C20.0732 17.2649 20.4159 17.4306 20.795 17.4306L20.794 17.4316Z" fill="#24C3FF"/>
</svg>
