<svg width="40" height="41" viewBox="0 0 40 41" fill="none" xmlns="http://www.w3.org/2000/svg">
<rect y="0.764648" width="40" height="40" rx="4" fill="#1B92BF"/>
<path d="M18.67 29.7611C18.32 29.7611 18.05 29.4511 18.1 29.1011L19 22.7611H15.5C14.62 22.7611 15.17 22.0111 15.19 21.9811C16.45 19.7511 18.34 16.4511 20.84 12.0511C20.9073 11.9356 21.0126 11.8471 21.1379 11.8006C21.2632 11.7542 21.4007 11.7527 21.527 11.7963C21.6533 11.84 21.7606 11.9262 21.8304 12.0401C21.9002 12.1541 21.9284 12.2887 21.91 12.4211L21.01 18.7611H24.52C24.92 18.7611 25.14 18.9511 24.92 19.4211C21.63 25.1611 19.72 28.5111 19.17 29.4711C19.07 29.6511 18.88 29.7611 18.67 29.7611Z" fill="white"/>
</svg>
