<svg width="40" height="41" viewBox="0 0 40 41" fill="none" xmlns="http://www.w3.org/2000/svg">
<rect y="0.764648" width="40" height="40" rx="4" fill="#1B92BF"/>
<g clip-path="url(#clip0_12096_843)">
<path d="M25.625 17.2495C22.1355 17.2495 19.2969 20.0881 19.2969 23.5775C19.2969 27.067 22.1355 29.9056 25.625 29.9056C29.1144 29.9056 31.9999 27.067 31.9999 23.5775C31.9999 20.0881 29.1145 17.2495 25.625 17.2495ZM26.3466 26.9661C26.3405 26.9683 26.3341 26.9673 26.328 26.9694V27.7962C26.328 28.1849 26.0136 28.4994 25.6249 28.4994C25.2363 28.4994 24.9218 28.1849 24.9218 27.7962V26.9646C24.4587 26.8082 24.015 26.5113 23.6357 26.0591C23.3857 25.7617 23.4242 25.3182 23.7222 25.0689C24.0195 24.819 24.4645 24.8574 24.7124 25.1554C25.0845 25.5983 25.5054 25.7741 25.8652 25.645C26.1419 25.5441 26.328 25.2784 26.328 24.9838C26.328 24.5959 26.0129 24.2807 25.6249 24.2807C24.4618 24.2807 23.5156 23.3344 23.5156 22.1713C23.5151 21.7567 23.637 21.3511 23.866 21.0054C24.095 20.6597 24.421 20.3894 24.8031 20.2282C24.8418 20.2118 24.8828 20.2127 24.9218 20.1987V19.3589C24.9218 18.9702 25.2363 18.6558 25.625 18.6558C26.0136 18.6558 26.3281 18.9702 26.3281 19.3589V20.2C26.6922 20.323 27.0472 20.5185 27.3642 20.8256C27.643 21.0954 27.6499 21.5404 27.3793 21.8198C27.1094 22.0986 26.6638 22.1048 26.385 21.8349C26.0431 21.5033 25.6648 21.3893 25.3516 21.5232C25.2241 21.5769 25.1153 21.6671 25.0389 21.7824C24.9624 21.8977 24.9217 22.033 24.9218 22.1714C24.9218 22.5593 25.237 22.8745 25.6249 22.8745C26.7881 22.8745 27.7342 23.8207 27.7342 24.9838C27.7343 25.8675 27.1768 26.664 26.3466 26.9661ZM8.70337 24.2807C8.31473 24.2807 8.00024 24.5952 8.00024 24.9838V32.0618C8.00024 32.4505 8.31473 32.7649 8.70337 32.7649H10.8127V24.2807H8.70337Z" fill="white"/>
<path d="M24.6761 13.1533L19.7543 8.93459C19.492 8.708 19.102 8.708 18.8397 8.93459L13.9179 13.1533C13.8087 13.2466 13.7307 13.3711 13.6946 13.5102C13.6585 13.6492 13.666 13.7959 13.716 13.9306C13.7657 14.0654 13.8555 14.1817 13.9734 14.2639C14.0913 14.346 14.2315 14.39 14.3752 14.39H16.4846V32.7647H21.4064C21.795 32.7647 22.1095 32.4502 22.1095 32.0616V30.4578C19.6091 29.1749 17.8908 26.5757 17.8908 23.5774C17.8908 20.5791 19.6091 17.9798 22.1095 16.6969V14.39H24.2188C24.3625 14.3901 24.5028 14.3461 24.6206 14.2639C24.7385 14.1818 24.8284 14.0654 24.878 13.9306C24.9281 13.796 24.9356 13.6492 24.8995 13.5102C24.8633 13.3711 24.7854 13.2466 24.6761 13.1533Z" fill="white"/>
<path d="M12.969 18.6558C12.5804 18.6558 12.2659 18.9702 12.2659 19.3589V32.7649H15.0783V18.6558H12.969Z" fill="white"/>
</g>
<defs>
<clipPath id="clip0_12096_843">
<rect width="24" height="24" fill="white" transform="translate(8 8.76465)"/>
</clipPath>
</defs>
</svg>
