<svg width="40" height="41" viewBox="0 0 40 41" fill="none" xmlns="http://www.w3.org/2000/svg">
<rect y="0.764648" width="40" height="40" rx="4" fill="#1B92BF"/>
<g clip-path="url(#clip0_12096_862)">
<path fill-rule="evenodd" clip-rule="evenodd" d="M8.74268 31.7878C9.13665 29.351 11.2493 27.4899 13.7964 27.4899C16.3449 27.4899 18.4576 29.3511 18.8511 31.7878C18.8561 31.8213 18.8539 31.8555 18.8446 31.8881C18.8353 31.9206 18.819 31.9508 18.7969 31.9765C18.7748 32.0022 18.7474 32.0228 18.7166 32.037C18.6858 32.0511 18.6523 32.0585 18.6184 32.0585C17.1824 32.0585 10.4109 32.0585 8.97449 32.0577C8.9407 32.0577 8.90731 32.0504 8.87661 32.0362C8.84591 32.0221 8.81862 32.0016 8.7966 31.9759C8.77459 31.9503 8.75837 31.9202 8.74906 31.8878C8.73976 31.8553 8.73758 31.8212 8.74268 31.7878ZM13.7964 27.0193C12.371 27.0193 11.209 25.8561 11.209 24.4306C11.209 23.0051 12.371 21.8418 13.7964 21.8418C15.2232 21.8418 16.3852 23.0051 16.3852 24.4306C16.3852 25.8561 15.2232 27.0193 13.7964 27.0193ZM21.1507 31.7878C21.5447 29.351 23.6574 27.4899 26.2044 27.4899C28.7529 27.4899 30.8656 29.3511 31.2591 31.7878C31.2642 31.8213 31.262 31.8555 31.2526 31.8881C31.2433 31.9206 31.227 31.9508 31.2049 31.9765C31.1828 32.0022 31.1555 32.0228 31.1247 32.037C31.0939 32.0511 31.0604 32.0585 31.0265 32.0585C29.5904 32.0585 22.819 32.0585 21.3825 32.0577C21.3487 32.0577 21.3154 32.0504 21.2847 32.0362C21.254 32.0221 21.2267 32.0016 21.2046 31.9759C21.1826 31.9503 21.1664 31.9202 21.1571 31.8878C21.1478 31.8553 21.1456 31.8212 21.1507 31.7878ZM26.2044 27.0193C24.779 27.0193 23.6171 25.8561 23.6171 24.4306C23.6171 23.0051 24.779 21.8418 26.2044 21.8418C27.6312 21.8418 28.7932 23.0051 28.7932 24.4306C28.7932 25.8561 27.6312 27.0193 26.2044 27.0193ZM17.0211 19.8095L16.4003 20.0845L15.2741 18.9583L15.6992 18.0021C15.4184 17.5481 15.2131 17.0507 15.0879 16.5309L14.1125 16.1555V14.5624L15.0879 14.187C15.2124 13.6668 15.4187 13.1696 15.6992 12.7142L15.2741 11.758L16.4003 10.6318L17.3565 11.0569C17.8112 10.7765 18.3079 10.5707 18.8277 10.4473L19.2047 9.47021H20.7978L21.1732 10.4473C21.6929 10.5707 22.1896 10.7765 22.6444 11.0569L23.6006 10.6318L24.7268 11.758L24.3032 12.7142C24.5839 13.1694 24.7897 13.6666 24.9129 14.187L25.8883 14.5624V16.1555L24.9129 16.5309C24.7894 17.0507 24.5824 17.5465 24.3032 18.0021L24.7268 18.9583L23.8089 19.8761C23.8297 19.7522 23.8233 19.6251 23.7902 19.5039C23.7571 19.3826 23.6981 19.2699 23.6172 19.1737C23.5363 19.0774 23.4355 18.9999 23.3218 18.9464C23.208 18.8929 23.084 18.8647 22.9583 18.8639L21.05 18.8505L21.1489 17.8908C22.1113 17.4536 22.7807 16.484 22.7807 15.3581C22.7807 13.8228 21.5358 12.5794 20.0004 12.5794C18.4651 12.5794 17.2217 13.8228 17.2217 15.3581C17.2217 16.2868 17.6766 17.1093 18.3759 17.6142L17.0211 19.8095ZM20.6012 15.8609L20.2292 19.4709C20.2275 19.4869 20.2292 19.5032 20.2342 19.5185C20.2392 19.5339 20.2473 19.548 20.2581 19.56C20.2688 19.572 20.282 19.5817 20.2967 19.5883C20.3114 19.5949 20.3274 19.5984 20.3435 19.5985L22.9529 19.6168C22.9743 19.6169 22.9952 19.623 23.0133 19.6343C23.0314 19.6456 23.0461 19.6617 23.0556 19.6808C23.0651 19.6999 23.0692 19.7213 23.0674 19.7426C23.0655 19.7639 23.0579 19.7842 23.0452 19.8014L18.7719 25.5731C18.7556 25.595 18.7322 25.6105 18.7057 25.6168C18.6792 25.6231 18.6513 25.6198 18.6269 25.6076C18.6026 25.5954 18.5833 25.5749 18.5726 25.5499C18.5618 25.5249 18.5602 25.4969 18.568 25.4708L19.7029 21.718C19.7081 21.7007 19.7092 21.6825 19.7062 21.6647C19.7031 21.6469 19.6958 21.63 19.6851 21.6155C19.6743 21.601 19.6603 21.5892 19.6441 21.5811C19.628 21.573 19.6102 21.5688 19.5921 21.5688H17.0276C17.007 21.5688 16.9868 21.5633 16.969 21.5529C16.9512 21.5425 16.9365 21.5275 16.9265 21.5095C16.9165 21.4915 16.9114 21.4711 16.9119 21.4505C16.9123 21.4299 16.9183 21.4098 16.9291 21.3922L20.3875 15.7883C20.4013 15.766 20.4222 15.749 20.4469 15.7402C20.4715 15.7313 20.4985 15.7311 20.5233 15.7395C20.5481 15.748 20.5693 15.7646 20.5835 15.7866C20.5976 15.8087 20.6038 15.8349 20.6012 15.8609Z" fill="white"/>
</g>
<defs>
<clipPath id="clip0_12096_862">
<rect width="24" height="24" fill="white" transform="translate(8 8.76465)"/>
</clipPath>
</defs>
</svg>
