<svg width="40" height="41" viewBox="0 0 40 41" fill="none" xmlns="http://www.w3.org/2000/svg">
<rect y="0.764648" width="40" height="40" rx="4" fill="#1B92BF"/>
<path d="M29.6 29.3135C29.6838 29.425 29.735 29.5576 29.7476 29.6964C29.7603 29.8353 29.734 29.9749 29.6716 30.0997C29.6093 30.2244 29.5134 30.3293 29.3948 30.4026C29.2762 30.4759 29.1394 30.5146 29 30.5145H11C10.8607 30.5145 10.7242 30.4757 10.6057 30.4025C10.4872 30.3292 10.3915 30.2245 10.3292 30.0999C10.2669 29.9753 10.2405 29.8359 10.253 29.6971C10.2655 29.5584 10.3164 29.4259 10.4 29.3145C11.0642 28.4242 11.9498 27.7231 12.9688 27.281C12.4102 26.7712 12.0188 26.1044 11.846 25.3682C11.6731 24.632 11.7269 23.8607 12.0003 23.1556C12.2737 22.4505 12.7539 21.8445 13.3779 21.4172C14.0019 20.9899 14.7405 20.7612 15.4967 20.7612C16.253 20.7612 16.9916 20.9899 17.6155 21.4172C18.2395 21.8445 18.7197 22.4505 18.9931 23.1556C19.2665 23.8607 19.3203 24.632 19.1475 25.3682C18.9747 26.1044 18.5833 26.7712 18.0247 27.281C18.7599 27.5988 19.428 28.0534 19.9934 28.6207C20.5588 28.0534 21.227 27.5988 21.9622 27.281C21.4036 26.7712 21.0122 26.1044 20.8394 25.3682C20.6666 24.632 20.7204 23.8607 20.9938 23.1556C21.2672 22.4505 21.7474 21.8445 22.3713 21.4172C22.9953 20.9899 23.7339 20.7612 24.4902 20.7612C25.2464 20.7612 25.985 20.9899 26.609 21.4172C27.2329 21.8445 27.7131 22.4505 27.9865 23.1556C28.2599 23.8607 28.3137 24.632 28.1409 25.3682C27.9681 26.1044 27.5767 26.7712 27.0181 27.281C28.0419 27.7207 28.9322 28.4216 29.6 29.3135ZM10.55 20.6145C10.6288 20.6736 10.7185 20.7166 10.8139 20.741C10.9093 20.7655 11.0086 20.7709 11.1061 20.7569C11.2036 20.743 11.2974 20.71 11.3821 20.6598C11.4669 20.6097 11.5409 20.5433 11.6 20.4645C12.0541 19.859 12.6429 19.3676 13.3198 19.0292C13.9968 18.6907 14.7432 18.5145 15.5 18.5145C16.2568 18.5145 17.0032 18.6907 17.6802 19.0292C18.3571 19.3676 18.9459 19.859 19.4 20.4645C19.4699 20.5576 19.5604 20.6332 19.6646 20.6853C19.7687 20.7374 19.8836 20.7645 20 20.7645C20.1164 20.7645 20.2313 20.7374 20.3354 20.6853C20.4396 20.6332 20.5301 20.5576 20.6 20.4645C21.0541 19.859 21.6429 19.3676 22.3198 19.0292C22.9968 18.6907 23.7432 18.5145 24.5 18.5145C25.2568 18.5145 26.0032 18.6907 26.6802 19.0292C27.3571 19.3676 27.9459 19.859 28.4 20.4645C28.4592 20.5433 28.5333 20.6096 28.6181 20.6598C28.7029 20.71 28.7967 20.7429 28.8943 20.7568C28.9918 20.7707 29.0911 20.7652 29.1866 20.7407C29.282 20.7162 29.3717 20.6732 29.4505 20.614C29.5293 20.5549 29.5956 20.4808 29.6458 20.396C29.6959 20.3111 29.7289 20.2173 29.7428 20.1197C29.7567 20.0222 29.7512 19.9229 29.7267 19.8274C29.7022 19.732 29.6592 19.6423 29.6 19.5635C28.9359 18.6734 28.0503 17.9727 27.0312 17.531C27.5898 17.0212 27.9812 16.3544 28.154 15.6182C28.3269 14.882 28.2731 14.1107 27.9997 13.4056C27.7263 12.7005 27.2461 12.0945 26.6221 11.6672C25.9981 11.2399 25.2595 11.0112 24.5033 11.0112C23.747 11.0112 23.0084 11.2399 22.3845 11.6672C21.7605 12.0945 21.2803 12.7005 21.0069 13.4056C20.7335 14.1107 20.6797 14.882 20.8525 15.6182C21.0253 16.3544 21.4167 17.0212 21.9753 17.531C21.2401 17.8488 20.572 18.3034 20.0066 18.8707C19.4412 18.3034 18.773 17.8488 18.0378 17.531C18.5964 17.0212 18.9878 16.3544 19.1606 15.6182C19.3334 14.882 19.2796 14.1107 19.0062 13.4056C18.7328 12.7005 18.2526 12.0945 17.6287 11.6672C17.0047 11.2399 16.2661 11.0112 15.5098 11.0112C14.7536 11.0112 14.015 11.2399 13.391 11.6672C12.7671 12.0945 12.2869 12.7005 12.0135 13.4056C11.7401 14.1107 11.6863 14.882 11.8591 15.6182C12.0319 16.3544 12.4233 17.0212 12.9819 17.531C11.9581 17.9712 11.0678 18.6724 10.4 19.5645C10.3409 19.6433 10.2979 19.7329 10.2735 19.8283C10.249 19.9238 10.2436 20.023 10.2575 20.1205C10.2715 20.2181 10.3045 20.3119 10.3546 20.3966C10.4048 20.4814 10.4712 20.5554 10.55 20.6145Z" fill="white"/>
</svg>
