<svg width="41" height="40" viewBox="0 0 41 40" fill="none" xmlns="http://www.w3.org/2000/svg">
<rect x="0.333374" width="40" height="40" rx="2.4" fill="#0D4459"/>
<g clip-path="url(#clip0_12014_2990)">
<path d="M35.0621 34.1247H34.0621V15.625C34.0621 15.1072 33.6423 14.6875 33.1246 14.6875H29.3747C28.8569 14.6875 28.4372 15.1072 28.4372 15.625V34.1247H26.5622V21.8749C26.5622 21.3572 26.1424 20.9374 25.6247 20.9374H21.8748C21.357 20.9374 20.9373 21.3572 20.9373 21.8749V34.1247H19.0623V25.3124C19.0623 24.7946 18.6425 24.3749 18.1248 24.3749H14.3749C13.8571 24.3749 13.4374 24.7946 13.4374 25.3124V34.1247H11.5624V27.5623C11.5624 27.0446 11.1427 26.6248 10.6249 26.6248H6.87496C6.35722 26.6248 5.93747 27.0446 5.93747 27.5623V34.1247H4.93749C4.41974 34.1247 4 34.5445 4 35.0622C4 35.58 4.41974 35.9997 4.93749 35.9997H35.0621C35.5798 35.9997 35.9996 35.58 35.9996 35.0622C35.9996 34.5445 35.5798 34.1247 35.0621 34.1247Z" fill="#24C3FF"/>
<path d="M4.93749 24.1439C10.7885 24.1439 17.1336 22.0426 22.8039 18.2269C27.2447 15.2385 30.9466 11.4209 33.2461 7.51177L34.1566 10.9097C34.2688 11.3285 34.8108 11.6904 35.3048 11.5725C35.8084 11.4524 36.1016 10.9245 35.9676 10.4244L34.4325 4.69506C34.2984 4.195 33.7846 3.89813 33.2843 4.03219L27.555 5.56736C27.0549 5.70136 26.7581 6.21541 26.8921 6.71553C27.0262 7.21565 27.54 7.51252 28.0403 7.3784L31.7312 6.38941C29.5859 10.1172 26.0404 13.7889 21.7571 16.6713C16.3929 20.281 10.4196 22.2689 4.93749 22.2689C4.41974 22.2689 4 22.6887 4 23.2064C4 23.7242 4.41974 24.1439 4.93749 24.1439Z" fill="#24C3FF"/>
</g>
<defs>
<clipPath id="clip0_12014_2990">
<rect width="32" height="32" fill="white" transform="translate(4 4)"/>
</clipPath>
</defs>
</svg>
