<svg width="41" height="40" viewBox="0 0 41 40" fill="none" xmlns="http://www.w3.org/2000/svg">
<rect x="0.666656" width="40" height="40" rx="4" fill="#0D4459"/>
<g clip-path="url(#clip0_12014_2984)">
<path d="M20.124 28.5437L20.0267 28.4623C19.7426 28.225 19.376 28.1098 19.0072 28.142C18.6384 28.1743 18.2973 28.3513 18.0587 28.6343L18.5254 28.075C18.7627 27.7909 18.8779 27.4243 18.8457 27.0555C18.8134 26.6867 18.6364 26.3456 18.3534 26.107L18.256 26.0257C17.9719 25.7883 17.6053 25.6731 17.2365 25.7054C16.8677 25.7376 16.5267 25.9146 16.288 26.1977C16.3227 26.1563 16.358 26.121 16.3927 26.079L16.756 25.639C16.8741 25.499 16.9632 25.3371 17.0184 25.1624C17.0735 24.9878 17.0936 24.804 17.0773 24.6216C17.0611 24.4392 17.0089 24.2619 16.9238 24.0997C16.8387 23.9376 16.7223 23.7939 16.5814 23.677L16.4834 23.593C16.3434 23.475 16.1814 23.3858 16.0068 23.3307C15.8322 23.2755 15.6484 23.2555 15.466 23.2717C15.2836 23.288 15.1062 23.3401 14.9441 23.4253C14.782 23.5104 14.6383 23.6268 14.5214 23.7677L14.046 24.3263C14.2844 24.0427 14.4006 23.6762 14.3692 23.3071C14.3379 22.938 14.1615 22.5963 13.8787 22.357L13.7807 22.273C13.64 22.1549 13.4774 22.0658 13.3023 22.0106C13.1271 21.9555 12.9427 21.9354 12.7598 21.9517C12.5768 21.9679 12.3989 22.02 12.2361 22.1052C12.0734 22.1903 11.929 22.3067 11.8114 22.4477L10.1047 24.4837C10.0768 24.5168 10.0512 24.5517 10.028 24.5883C9.82857 24.8739 9.74308 25.2237 9.78835 25.5691C9.83362 25.9145 10.0064 26.2305 10.2727 26.455L10.37 26.539C10.6546 26.7767 11.0218 26.8918 11.3911 26.859C11.7605 26.8263 12.1017 26.6484 12.34 26.3643C12.1027 26.6488 11.9877 27.0156 12.0203 27.3846C12.053 27.7536 12.2305 28.0946 12.514 28.333L12.612 28.4097C12.8946 28.6475 13.26 28.7634 13.628 28.732C13.996 28.7006 14.3364 28.5245 14.5747 28.2423L14.5787 28.2377C14.4608 28.3781 14.3717 28.5404 14.3165 28.7153C14.2613 28.8902 14.2411 29.0743 14.2571 29.257C14.273 29.4397 14.3249 29.6174 14.4096 29.7801C14.4943 29.9428 14.6102 30.0872 14.7507 30.205L14.848 30.287C15.1322 30.5243 15.4989 30.6394 15.8677 30.607C16.2365 30.5746 16.5775 30.3975 16.816 30.1143C16.5787 30.3985 16.4635 30.765 16.4957 31.1339C16.528 31.5027 16.705 31.8437 16.988 32.0823L17.0854 32.1643C17.3695 32.4017 17.7361 32.5169 18.1049 32.4847C18.4737 32.4524 18.8147 32.2754 19.0534 31.9923L20.2967 30.5103C20.5336 30.2262 20.6484 29.8599 20.616 29.4914C20.5837 29.1229 20.4068 28.7822 20.124 28.5437ZM27.694 15.2977C27.5772 15.0883 27.4893 14.864 27.4327 14.631C26.8816 14.4346 26.3011 14.3338 25.716 14.333H23.412C22.4386 14.3326 21.4849 14.6072 20.6607 15.125L17.5414 17.0837C17.2604 17.2591 17.0554 17.5336 16.9671 17.8528C16.8787 18.1721 16.9134 18.5129 17.0642 18.8078C17.215 19.1028 17.471 19.3304 17.7816 19.4456C18.0921 19.5609 18.4346 19.5554 18.7414 19.4303L24.772 17.0303L31.0387 22.3837C31.172 22.2817 31.3494 22.133 31.5427 21.9617L27.694 15.2977Z" fill="#24C3FF"/>
<path d="M30.7751 11.9784L29.3358 12.8094C28.6981 13.1776 28.4796 13.9931 28.8478 14.6308L33.0714 21.9464C33.4396 22.5841 34.2551 22.8026 34.8928 22.4344L36.3321 21.6034C36.9699 21.2352 37.1884 20.4198 36.8202 19.782L32.5965 12.4664C32.2283 11.8287 31.4129 11.6102 30.7751 11.9784Z" fill="#24C3FF"/>
<path d="M9.40204 12.4667L5.17837 19.7823C4.81018 20.42 5.02868 21.2355 5.66641 21.6037L7.10574 22.4347C7.74346 22.8029 8.55892 22.5844 8.92711 21.9466L13.1508 14.631C13.519 13.9933 13.3005 13.1779 12.6627 12.8097L11.2234 11.9787C10.5857 11.6105 9.77023 11.829 9.40204 12.4667Z" fill="#24C3FF"/>
<path d="M28.948 26.2626L29.292 26.5826C29.5609 26.814 29.9039 26.9412 30.2587 26.9412C30.6135 26.9412 30.9565 26.814 31.2254 26.5826C31.3869 26.4435 31.5165 26.2712 31.6054 26.0775C31.6943 25.8837 31.7403 25.6731 31.7403 25.4599C31.7403 25.2468 31.6943 25.0361 31.6054 24.8424C31.5165 24.6486 31.3869 24.4763 31.2254 24.3372L25.0134 18.9879L24.5187 18.5659L19.2394 20.6666C18.6239 20.9147 17.9378 20.9235 17.3161 20.6912C16.6944 20.4589 16.1822 20.0024 15.8803 19.4114C15.5783 18.8205 15.5085 18.1379 15.6845 17.498C15.8605 16.8581 16.2696 16.3073 16.8314 15.9539L19.5954 14.2206L16.5094 13.8359C15.8912 13.7614 15.2651 13.7862 14.6547 13.9092C14.6687 14.3961 14.5478 14.8774 14.3054 15.2999L10.4114 22.0439L10.794 21.5872C11.2593 21.0328 11.9256 20.6855 12.6466 20.6217C13.3676 20.5578 14.0845 20.7825 14.64 21.2466L14.7494 21.3399C14.9567 21.5146 15.1365 21.7196 15.2827 21.9479C15.6515 21.9053 16.0251 21.9386 16.3805 22.0458C16.7359 22.153 17.0657 22.3318 17.3494 22.5712L17.456 22.6626C17.7292 22.8917 17.9543 23.1726 18.1181 23.4893C18.282 23.8059 18.3814 24.1519 18.4107 24.5072C18.4107 24.5312 18.4147 24.5546 18.416 24.5779C18.6697 24.6841 18.9059 24.8279 19.1167 25.0046L19.2127 25.0859C19.4972 25.3242 19.73 25.6181 19.8967 25.9497C20.0634 26.2813 20.1605 26.6434 20.182 27.0139C20.4364 27.1197 20.6732 27.2638 20.884 27.4412L20.9834 27.5246C21.5179 27.9713 21.8599 28.6067 21.9384 29.2989C22.0168 29.9911 21.8257 30.6869 21.4047 31.2419L21.706 31.5166C21.8476 31.6469 22.0136 31.7479 22.1945 31.8136C22.3754 31.8793 22.5675 31.9085 22.7597 31.8994C22.9519 31.8904 23.1404 31.8433 23.3143 31.7608C23.4882 31.6784 23.644 31.5623 23.7727 31.4192C24.031 31.1321 24.1656 30.7546 24.1472 30.3688C24.1289 29.983 23.9591 29.62 23.6747 29.3586L24.1414 29.7852C24.2829 29.9146 24.4486 30.0148 24.6289 30.0801C24.8092 30.1455 25.0006 30.1746 25.1921 30.166C25.3837 30.1574 25.5717 30.1111 25.7454 30.0298C25.919 29.9485 26.075 29.8338 26.2044 29.6922C26.3337 29.5507 26.4339 29.385 26.4992 29.2047C26.5646 29.0244 26.5938 28.8331 26.5851 28.6415C26.5765 28.4499 26.5302 28.2619 26.4489 28.0882C26.3676 27.9146 26.2529 27.7586 26.1114 27.6292L26.978 28.4192C27.2651 28.6734 27.6407 28.8045 28.0236 28.7842C28.4065 28.7638 28.7661 28.5938 29.0247 28.3107C29.2833 28.0276 29.4202 27.6541 29.4059 27.2709C29.3915 26.8877 29.2271 26.5256 28.948 26.2626Z" fill="#24C3FF"/>
</g>
<defs>
<clipPath id="clip0_12014_2984">
<rect width="32" height="32" fill="white" transform="translate(5.00003 5)"/>
</clipPath>
</defs>
</svg>
