<svg width="40" height="40" viewBox="0 0 40 40" fill="none" xmlns="http://www.w3.org/2000/svg">
<rect width="40" height="40" rx="4" fill="#0D4459"/>
<path fill-rule="evenodd" clip-rule="evenodd" d="M12.3674 35L27.6326 34.9999C27.7252 35.0003 27.8167 34.9801 27.9004 34.9407C27.9842 34.9013 28.0581 34.8437 28.1168 34.7722C28.1755 34.7006 28.2176 34.6169 28.2398 34.527C28.2621 34.4372 28.2641 34.3435 28.2457 34.2528C27.4781 30.4001 24.0782 27.4964 20 27.4964C15.9217 27.4964 12.5218 30.4001 11.7542 34.2528C11.7358 34.3435 11.7378 34.4372 11.7601 34.5271C11.7824 34.6169 11.8244 34.7006 11.8831 34.7722C11.9418 34.8438 12.0158 34.9013 12.0995 34.9407C12.1833 34.9801 12.2748 35.0004 12.3674 35ZM27.2055 13.0564C27.0911 13.1204 26.9561 13.1367 26.8298 13.1017C26.7035 13.0668 26.596 12.9835 26.5307 12.8699C26.4655 12.7563 26.4476 12.6215 26.481 12.4948C26.5145 12.3681 26.5966 12.2597 26.7094 12.1931L30.1181 10.2251C30.2325 10.1611 30.3675 10.1448 30.4938 10.1797C30.6201 10.2146 30.7276 10.2979 30.7929 10.4115C30.8582 10.5252 30.876 10.6599 30.8426 10.7867C30.8091 10.9134 30.727 11.0218 30.6142 11.0884L27.2055 13.0564ZM28.0337 17.1416C27.9011 17.1416 27.774 17.0889 27.6802 16.9952C27.5864 16.9014 27.5337 16.7742 27.5337 16.6416C27.5337 16.509 27.5864 16.3818 27.6802 16.2881C27.774 16.1943 27.9011 16.1416 28.0337 16.1416H31.9697C32.1023 16.1416 32.2295 16.1943 32.3233 16.2881C32.4171 16.3818 32.4697 16.509 32.4697 16.6416C32.4697 16.7742 32.4171 16.9014 32.3233 16.9952C32.2295 17.0889 32.1023 17.1416 31.9697 17.1416H28.0337ZM26.7094 21.0901C26.5976 21.023 26.5167 20.9147 26.4839 20.7885C26.4511 20.6623 26.4692 20.5283 26.5341 20.4152C26.5991 20.3022 26.7058 20.2192 26.8313 20.1839C26.9568 20.1487 27.0911 20.1641 27.2054 20.2268L30.6141 22.1948C30.7259 22.262 30.8068 22.3703 30.8396 22.4965C30.8723 22.6226 30.8543 22.7566 30.7894 22.8697C30.7244 22.9827 30.6177 23.0658 30.4922 23.101C30.3667 23.1363 30.2323 23.1209 30.1181 23.0581L26.7094 21.0901ZM12.7945 20.2268C12.8512 20.1942 12.9137 20.1731 12.9786 20.1647C13.0434 20.1563 13.1093 20.1608 13.1724 20.1778C13.2355 20.1949 13.2946 20.2242 13.3464 20.2641C13.3982 20.304 13.4416 20.3537 13.4742 20.4104C13.5068 20.4671 13.5278 20.5297 13.5362 20.5945C13.5447 20.6593 13.5402 20.7252 13.5231 20.7883C13.5061 20.8514 13.4768 20.9106 13.4369 20.9624C13.397 21.0141 13.3472 21.0576 13.2906 21.0901L9.88193 23.0581C9.76756 23.1221 9.63257 23.1384 9.50625 23.1035C9.37994 23.0686 9.27248 22.9853 9.20719 22.8717C9.1419 22.758 9.12404 22.6232 9.15749 22.4965C9.19094 22.3698 9.273 22.2614 9.38587 22.1948L12.7945 20.2268ZM13.2906 12.1931C13.4024 12.2602 13.4833 12.3685 13.5161 12.4947C13.5489 12.6209 13.5308 12.7549 13.4659 12.8679C13.4009 12.981 13.2942 13.064 13.1687 13.0993C13.0432 13.1345 12.9088 13.1191 12.7946 13.0564L9.38587 11.0884C9.27412 11.0212 9.19317 10.9129 9.1604 10.7867C9.12764 10.6605 9.14566 10.5265 9.21062 10.4135C9.27557 10.3005 9.38227 10.2174 9.50779 10.1822C9.63331 10.1469 9.76764 10.1623 9.88193 10.2251L13.2906 12.1931ZM11.9662 16.1416C12.0989 16.1416 12.226 16.1943 12.3198 16.2881C12.4136 16.3818 12.4662 16.509 12.4662 16.6416C12.4662 16.7742 12.4136 16.9014 12.3198 16.9952C12.226 17.0889 12.0989 17.1416 11.9662 17.1416H8.03024C7.89763 17.1416 7.77046 17.0889 7.67669 16.9952C7.58292 16.9014 7.53024 16.7742 7.53024 16.6416C7.53024 16.509 7.58292 16.3818 7.67669 16.2881C7.77046 16.1943 7.89763 16.1416 8.03024 16.1416H11.9662ZM20.2344 5.16075L21.4377 8.33012C21.4739 8.42537 21.5581 8.48656 21.6599 8.4915L25.0459 8.65656C25.2762 8.66775 25.3705 8.95788 25.1908 9.10231L22.5484 11.2261C22.469 11.2899 22.4368 11.3889 22.4636 11.4872L23.3529 14.7586C23.4134 14.9811 23.1667 15.1603 22.9737 15.0341L20.1373 13.1773C20.0521 13.1215 19.948 13.1215 19.8627 13.1773L17.0264 15.0341C16.8335 15.1603 16.5867 14.9811 16.6472 14.7586L17.5366 11.4872C17.5633 11.3889 17.5311 11.2899 17.4517 11.226L14.8094 9.10219C14.6297 8.95775 14.7239 8.66762 14.9542 8.65644L18.3404 8.49137C18.4422 8.48644 18.5264 8.42525 18.5625 8.33L19.7658 5.16062C19.847 4.94644 20.153 4.94644 20.2344 5.16075ZM20.0001 18.3689C22.3479 18.3689 24.2513 20.2723 24.2513 22.6202C24.2513 24.9681 22.3479 26.8714 20.0001 26.8714C17.6522 26.8714 15.7488 24.9681 15.7488 22.6202C15.7488 20.2723 17.6522 18.3689 20.0001 18.3689Z" fill="#24C3FF"/>
</svg>
