<svg width="24" height="25" viewBox="0 0 24 25" fill="none" xmlns="http://www.w3.org/2000/svg">
<path d="M9.62388 22.227C14.1234 22.227 17.771 18.5794 17.771 14.0799C17.771 9.58043 14.1234 5.93286 9.62388 5.93286C5.12438 5.93286 1.47681 9.58043 1.47681 14.0799C1.47681 18.5794 5.12438 22.227 9.62388 22.227Z" fill="#E9F9FF"/>
<path d="M9.71605 20.3771L9.61271 20.2011C8.03425 17.5117 3.83969 11.8044 3.79732 11.7471L3.73682 11.6649L5.16588 10.2526L9.68951 13.4113C12.5377 9.71532 15.1949 7.17677 16.9281 5.69435C18.8242 4.07274 20.0584 3.3262 20.0708 3.31905L20.0989 3.30225H22.523L22.2914 3.50846C16.3363 8.81274 9.88146 20.0865 9.81717 20.1997L9.71605 20.3771Z" fill="#1B92BF"/>
</svg>
